solid box pakan ikan
facet normal 0.7933533312201629 -0.608761440830372 0.0
  outer loop
    vertex 56.29791848989496 31.202081545929165 0.0
    vertex 56.02775682623222 30.850000021937674 60.0
    vertex 56.02775682623222 30.850000021937674 0.0
  endloop
endfacet
facet normal 0.7933533312201629 -0.608761440830372 0.0
  outer loop
    vertex 56.02775682623222 30.850000021937674 60.0
    vertex 56.29791848989496 31.202081545929165 0.0
    vertex 56.29791848989496 31.202081545929165 60.0
  endloop
endfacet
facet normal 1.0 0.0 0.0
  outer loop
    vertex 0.0 54.000000000000014 0.0
    vertex 0.0 51.99999999999999 60.0
    vertex 0.0 51.99999999999999 0.0
  endloop
endfacet
facet normal 1.0 0.0 0.0
  outer loop
    vertex 0.0 51.99999999999999 60.0
    vertex 0.0 54.000000000000014 0.0
    vertex 0.0 54.000000000000014 60.0
  endloop
endfacet
facet normal -0.6087614408303992 -0.7933533312201421 -0.0
  outer loop
    vertex 58.4615355278275 31.386658967340125 60.0
    vertex 58.35000002193773 31.472243173767765 0.0
    vertex 58.4615355278275 31.386658967340125 0.0
  endloop
endfacet
facet normal -0.6087614408303992 -0.7933533312201421 -0.0
  outer loop
    vertex 58.35000002193773 31.472243173767765 0.0
    vertex 58.4615355278275 31.386658967340125 60.0
    vertex 58.35000002193773 31.472243173767765 60.0
  endloop
endfacet
facet normal 0.9914448633187626 0.13052617744667228 0.0
  outer loop
    vertex 55.80000000000001 30.000000025331456 0.0
    vertex 55.85792608875232 29.56000764779402 60.0
    vertex 55.85792608875232 29.56000764779402 0.0
  endloop
endfacet
facet normal 0.9914448633187626 0.13052617744667228 0.0
  outer loop
    vertex 55.85792608875232 29.56000764779402 60.0
    vertex 55.80000000000001 30.000000025331456 0.0
    vertex 55.80000000000001 30.000000025331456 60.0
  endloop
endfacet
facet normal -0.0 -1.0 -0.0
  outer loop
    vertex 0.9999999999999996 54.000000000000014 60.0
    vertex 0.0 54.000000000000014 0.0
    vertex 0.9999999999999996 54.000000000000014 0.0
  endloop
endfacet
facet normal -0.0 -1.0 -0.0
  outer loop
    vertex 0.0 54.000000000000014 0.0
    vertex 0.9999999999999996 54.000000000000014 60.0
    vertex 0.0 54.000000000000014 60.0
  endloop
endfacet
facet normal -1.0 0.0 0.0
  outer loop
    vertex 60.0 54.000000000000014 60.0
    vertex 60.0 51.99999999999999 0.0
    vertex 60.0 51.99999999999999 60.0
  endloop
endfacet
facet normal -1.0 0.0 0.0
  outer loop
    vertex 60.0 51.99999999999999 0.0
    vertex 60.0 54.000000000000014 60.0
    vertex 60.0 54.000000000000014 0.0
  endloop
endfacet
facet normal 0.130526206993457 0.9914448594288546 0.0
  outer loop
    vertex 57.06000759885737 28.35792610186482 60.0
    vertex 57.49999997466852 28.299999999999958 0.0
    vertex 57.06000759885737 28.35792610186482 0.0
  endloop
endfacet
facet normal 0.130526206993457 0.9914448594288546 0.0
  outer loop
    vertex 57.49999997466852 28.299999999999958 0.0
    vertex 57.06000759885737 28.35792610186482 60.0
    vertex 57.49999997466852 28.299999999999958 60.0
  endloop
endfacet
facet normal -0.0 -1.0 -0.0
  outer loop
    vertex 60.0 54.000000000000014 60.0
    vertex 59.00000000000001 54.000000000000014 0.0
    vertex 60.0 54.000000000000014 0.0
  endloop
endfacet
facet normal -0.0 -1.0 -0.0
  outer loop
    vertex 59.00000000000001 54.000000000000014 0.0
    vertex 60.0 54.000000000000014 60.0
    vertex 59.00000000000001 54.000000000000014 60.0
  endloop
endfacet
facet normal -0.13052617744664893 0.9914448633187657 0.0
  outer loop
    vertex 57.49999997466852 28.299999999999958 60.0
    vertex 57.93999235220594 28.35792608875227 0.0
    vertex 57.49999997466852 28.299999999999958 0.0
  endloop
endfacet
facet normal -0.13052617744664893 0.9914448633187657 0.0
  outer loop
    vertex 57.93999235220594 28.35792608875227 0.0
    vertex 57.49999997466852 28.299999999999958 60.0
    vertex 57.93999235220594 28.35792608875227 60.0
  endloop
endfacet
facet normal -0.38268341859848526 0.923879538213601 0.0
  outer loop
    vertex 57.93999235220594 28.35792608875227 60.0
    vertex 58.34999997806228 28.527756800900672 0.0
    vertex 57.93999235220594 28.35792608875227 0.0
  endloop
endfacet
facet normal -0.38268341859848526 0.923879538213601 0.0
  outer loop
    vertex 58.34999997806228 28.527756800900672 0.0
    vertex 57.93999235220594 28.35792608875227 60.0
    vertex 58.34999997806228 28.527756800900672 60.0
  endloop
endfacet
facet normal 0.9914448594288545 -0.13052620699345865 0.0
  outer loop
    vertex 55.85792610186487 30.43999240114259 0.0
    vertex 55.80000000000001 30.000000025331456 60.0
    vertex 55.80000000000001 30.000000025331456 0.0
  endloop
endfacet
facet normal 0.9914448594288545 -0.13052620699345865 0.0
  outer loop
    vertex 55.80000000000001 30.000000025331456 60.0
    vertex 55.85792610186487 30.43999240114259 0.0
    vertex 55.85792610186487 30.43999240114259 60.0
  endloop
endfacet
facet normal -0.6087614171870448 0.7933533493623262 0.0
  outer loop
    vertex 58.34999997806228 28.527756800900672 60.0
    vertex 58.461535486502605 28.61334100400435 0.0
    vertex 58.34999997806228 28.527756800900672 0.0
  endloop
endfacet
facet normal -0.6087614171870448 0.7933533493623262 0.0
  outer loop
    vertex 58.461535486502605 28.61334100400435 0.0
    vertex 58.34999997806228 28.527756800900672 60.0
    vertex 58.461535486502605 28.61334100400435 60.0
  endloop
endfacet
facet normal -1.0 -4.096907766367453e-09 -0.0
  outer loop
    vertex 59.00000000000001 51.99999999999999 60.0
    vertex 59.00000007069485 34.74434055894393 0.0
    vertex 59.00000007069485 34.74434055894393 60.0
  endloop
endfacet
facet normal -1.0 -4.096907766367453e-09 -0.0
  outer loop
    vertex 59.00000007069485 34.74434055894393 0.0
    vertex 59.00000000000001 51.99999999999999 60.0
    vertex 59.00000000000001 51.99999999999999 0.0
  endloop
endfacet
facet normal -0.9238795382136047 -0.3826834185984763 -0.0
  outer loop
    vertex 59.00000001166722 30.782989101888248 60.0
    vertex 59.14207391124769 30.439992352205905 0.0
    vertex 59.14207391124769 30.439992352205905 60.0
  endloop
endfacet
facet normal -0.9238795382136047 -0.3826834185984763 -0.0
  outer loop
    vertex 59.14207391124769 30.439992352205905 0.0
    vertex 59.00000001166722 30.782989101888248 60.0
    vertex 59.00000001166722 30.782989101888248 0.0
  endloop
endfacet
facet normal -0.9238795382136921 -0.3826834185982656 -0.0
  outer loop
    vertex 58.9722431990993 30.849999978062247 60.0
    vertex 59.00000001166722 30.782989101888248 0.0
    vertex 59.00000001166722 30.782989101888248 60.0
  endloop
endfacet
facet normal -0.9238795382136921 -0.3826834185982656 -0.0
  outer loop
    vertex 59.00000001166722 30.782989101888248 0.0
    vertex 58.9722431990993 30.849999978062247 60.0
    vertex 58.9722431990993 30.849999978062247 0.0
  endloop
endfacet
facet normal 0.0 1.0 0.0
  outer loop
    vertex 0.0 51.99999999999999 60.0
    vertex 0.9999999999999996 51.99999999999999 0.0
    vertex 0.0 51.99999999999999 0.0
  endloop
endfacet
facet normal 0.0 1.0 0.0
  outer loop
    vertex 0.9999999999999996 51.99999999999999 0.0
    vertex 0.0 51.99999999999999 60.0
    vertex 0.9999999999999996 51.99999999999999 60.0
  endloop
endfacet
facet normal -0.7933533493623016 -0.6087614171870765 -0.0
  outer loop
    vertex 58.70208154592921 31.20208151010502 60.0
    vertex 58.9722431990993 30.849999978062247 0.0
    vertex 58.9722431990993 30.849999978062247 60.0
  endloop
endfacet
facet normal -0.7933533493623016 -0.6087614171870765 -0.0
  outer loop
    vertex 58.9722431990993 30.849999978062247 0.0
    vertex 58.70208154592921 31.20208151010502 60.0
    vertex 58.70208154592921 31.20208151010502 0.0
  endloop
endfacet
facet normal -0.130526206993457 -0.9914448594288546 -0.0
  outer loop
    vertex 57.939992401142646 31.642073898135106 60.0
    vertex 57.500000025331495 31.699999999999964 0.0
    vertex 57.939992401142646 31.642073898135106 0.0
  endloop
endfacet
facet normal -0.130526206993457 -0.9914448594288546 -0.0
  outer loop
    vertex 57.500000025331495 31.699999999999964 0.0
    vertex 57.939992401142646 31.642073898135106 60.0
    vertex 57.500000025331495 31.699999999999964 60.0
  endloop
endfacet
facet normal 0.13052617744666145 -0.9914448633187641 0.0
  outer loop
    vertex 57.500000025331495 31.699999999999964 60.0
    vertex 57.06000764779407 31.64207391124765 0.0
    vertex 57.500000025331495 31.699999999999964 0.0
  endloop
endfacet
facet normal 0.13052617744666145 -0.9914448633187641 0.0
  outer loop
    vertex 57.06000764779407 31.64207391124765 0.0
    vertex 57.500000025331495 31.699999999999964 60.0
    vertex 57.06000764779407 31.64207391124765 60.0
  endloop
endfacet
facet normal -0.0 -1.0 -0.0
  outer loop
    vertex 59.00000000000001 56.00000000000006 60.0
    vertex 0.9999999999999996 56.00000000000006 0.0
    vertex 59.00000000000001 56.00000000000006 0.0
  endloop
endfacet
facet normal -0.0 -1.0 -0.0
  outer loop
    vertex 0.9999999999999996 56.00000000000006 0.0
    vertex 59.00000000000001 56.00000000000006 60.0
    vertex 0.9999999999999996 56.00000000000006 60.0
  endloop
endfacet
facet normal 0.9238795268089617 -0.3826834461317202 0.0
  outer loop
    vertex 56.02775682623222 30.850000021937674 0.0
    vertex 55.85792610186487 30.43999240114259 60.0
    vertex 55.85792610186487 30.43999240114259 0.0
  endloop
endfacet
facet normal 0.9238795268089617 -0.3826834461317202 0.0
  outer loop
    vertex 55.85792610186487 30.43999240114259 60.0
    vertex 56.02775682623222 30.850000021937674 0.0
    vertex 56.02775682623222 30.850000021937674 60.0
  endloop
endfacet
facet normal 0.7933533493623139 0.6087614171870607 0.0
  outer loop
    vertex 56.02775680090071 29.15000002193768 0.0
    vertex 56.2979184540708 28.7979184898949 60.0
    vertex 56.2979184540708 28.7979184898949 0.0
  endloop
endfacet
facet normal 0.7933533493623139 0.6087614171870607 0.0
  outer loop
    vertex 56.2979184540708 28.7979184898949 60.0
    vertex 56.02775680090071 29.15000002193768 0.0
    vertex 56.02775680090071 29.15000002193768 60.0
  endloop
endfacet
facet normal 0.6087614171870526 -0.79335334936232 0.0
  outer loop
    vertex 56.650000021937736 31.472243199099253 60.0
    vertex 56.29791848989496 31.202081545929165 0.0
    vertex 56.650000021937736 31.472243199099253 0.0
  endloop
endfacet
facet normal 0.6087614171870526 -0.79335334936232 0.0
  outer loop
    vertex 56.29791848989496 31.202081545929165 0.0
    vertex 56.650000021937736 31.472243199099253 60.0
    vertex 56.29791848989496 31.202081545929165 60.0
  endloop
endfacet
facet normal -1.0 0.0 0.0
  outer loop
    vertex 59.00000000000001 56.00000000000006 60.0
    vertex 59.00000000000001 54.000000000000014 0.0
    vertex 59.00000000000001 54.000000000000014 60.0
  endloop
endfacet
facet normal -1.0 0.0 0.0
  outer loop
    vertex 59.00000000000001 54.000000000000014 0.0
    vertex 59.00000000000001 56.00000000000006 60.0
    vertex 59.00000000000001 56.00000000000006 0.0
  endloop
endfacet
facet normal 0.0 1.0 0.0
  outer loop
    vertex 59.00000000000001 51.99999999999999 60.0
    vertex 60.0 51.99999999999999 0.0
    vertex 59.00000000000001 51.99999999999999 0.0
  endloop
endfacet
facet normal 0.0 1.0 0.0
  outer loop
    vertex 60.0 51.99999999999999 0.0
    vertex 59.00000000000001 51.99999999999999 60.0
    vertex 60.0 51.99999999999999 60.0
  endloop
endfacet
facet normal 0.6087614408303923 0.7933533312201475 0.0
  outer loop
    vertex 56.2979184540708 28.7979184898949 60.0
    vertex 56.64999997806228 28.52775682623216 0.0
    vertex 56.2979184540708 28.7979184898949 0.0
  endloop
endfacet
facet normal 0.6087614408303923 0.7933533312201475 0.0
  outer loop
    vertex 56.64999997806228 28.52775682623216 0.0
    vertex 56.2979184540708 28.7979184898949 60.0
    vertex 56.64999997806228 28.52775682623216 60.0
  endloop
endfacet
facet normal 0.3826834461316985 0.9238795268089707 0.0
  outer loop
    vertex 56.64999997806228 28.52775682623216 60.0
    vertex 57.06000759885737 28.35792610186482 0.0
    vertex 56.64999997806228 28.52775682623216 0.0
  endloop
endfacet
facet normal 0.3826834461316985 0.9238795268089707 0.0
  outer loop
    vertex 57.06000759885737 28.35792610186482 0.0
    vertex 56.64999997806228 28.52775682623216 60.0
    vertex 57.06000759885737 28.35792610186482 60.0
  endloop
endfacet
facet normal 1.0 0.0 0.0
  outer loop
    vertex 0.9999999999999996 56.00000000000006 0.0
    vertex 0.9999999999999996 54.000000000000014 60.0
    vertex 0.9999999999999996 54.000000000000014 0.0
  endloop
endfacet
facet normal 1.0 0.0 0.0
  outer loop
    vertex 0.9999999999999996 54.000000000000014 60.0
    vertex 0.9999999999999996 56.00000000000006 0.0
    vertex 0.9999999999999996 56.00000000000006 60.0
  endloop
endfacet
facet normal -0.608761440830389 -0.7933533312201498 -0.0
  outer loop
    vertex 58.70208154592921 31.20208151010502 60.0
    vertex 58.4615355278275 31.386658967340125 0.0
    vertex 58.70208154592921 31.20208151010502 0.0
  endloop
endfacet
facet normal -0.608761440830389 -0.7933533312201498 -0.0
  outer loop
    vertex 58.4615355278275 31.386658967340125 0.0
    vertex 58.70208154592921 31.20208151010502 60.0
    vertex 58.4615355278275 31.386658967340125 60.0
  endloop
endfacet
facet normal -0.3826834461316985 -0.9238795268089707 -0.0
  outer loop
    vertex 58.35000002193773 31.472243173767765 60.0
    vertex 57.939992401142646 31.642073898135106 0.0
    vertex 58.35000002193773 31.472243173767765 0.0
  endloop
endfacet
facet normal -0.3826834461316985 -0.9238795268089707 -0.0
  outer loop
    vertex 57.939992401142646 31.642073898135106 0.0
    vertex 58.35000002193773 31.472243173767765 60.0
    vertex 57.939992401142646 31.642073898135106 60.0
  endloop
endfacet
facet normal 0.92387953821361 0.38268341859846355 0.0
  outer loop
    vertex 55.85792608875232 29.56000764779402 0.0
    vertex 56.02775680090071 29.15000002193768 60.0
    vertex 56.02775680090071 29.15000002193768 0.0
  endloop
endfacet
facet normal 0.92387953821361 0.38268341859846355 0.0
  outer loop
    vertex 56.02775680090071 29.15000002193768 60.0
    vertex 55.85792608875232 29.56000764779402 0.0
    vertex 55.85792608875232 29.56000764779402 60.0
  endloop
endfacet
facet normal 0.3826834185984744 -0.9238795382136055 0.0
  outer loop
    vertex 57.06000764779407 31.64207391124765 60.0
    vertex 56.650000021937736 31.472243199099253 0.0
    vertex 57.06000764779407 31.64207391124765 0.0
  endloop
endfacet
facet normal 0.3826834185984744 -0.9238795382136055 0.0
  outer loop
    vertex 56.650000021937736 31.472243199099253 0.0
    vertex 57.06000764779407 31.64207391124765 60.0
    vertex 56.650000021937736 31.472243199099253 60.0
  endloop
endfacet
facet normal -0.7933533312201507 0.608761440830388 0.0
  outer loop
    vertex 58.972243173767815 29.149999978062247 60.0
    vertex 58.70208151010506 28.797918454070757 0.0
    vertex 58.70208151010506 28.797918454070757 60.0
  endloop
endfacet
facet normal -0.7933533312201507 0.608761440830388 0.0
  outer loop
    vertex 58.70208151010506 28.797918454070757 0.0
    vertex 58.972243173767815 29.149999978062247 60.0
    vertex 58.972243173767815 29.149999978062247 0.0
  endloop
endfacet
facet normal -0.9914448633187658 -0.1305261774466473 -0.0
  outer loop
    vertex 59.14207391124769 30.439992352205905 60.0
    vertex 59.2 29.99999997466847 0.0
    vertex 59.2 29.99999997466847 60.0
  endloop
endfacet
facet normal -0.9914448633187658 -0.1305261774466473 -0.0
  outer loop
    vertex 59.2 29.99999997466847 0.0
    vertex 59.14207391124769 30.439992352205905 60.0
    vertex 59.14207391124769 30.439992352205905 0.0
  endloop
endfacet
facet normal 0.923879532511287 0.3826834323650894 0.0
  outer loop
    vertex 0.8579260953085831 29.560007623325717 0.0
    vertex 0.9999999999999989 29.217010875760398 60.0
    vertex 0.9999999999999989 29.217010875760398 0.0
  endloop
endfacet
facet normal 0.923879532511287 0.3826834323650894 0.0
  outer loop
    vertex 0.9999999999999989 29.217010875760398 60.0
    vertex 0.8579260953085831 29.560007623325717 0.0
    vertex 0.8579260953085831 29.560007623325717 60.0
  endloop
endfacet
facet normal -0.1305261922200528 -0.9914448613738103 -0.0
  outer loop
    vertex 2.939992376674285 31.64207390469142 60.0
    vertex 2.4999999999999996 31.700000000000003 0.0
    vertex 2.939992376674285 31.64207390469142 0.0
  endloop
endfacet
facet normal -0.1305261922200528 -0.9914448613738103 -0.0
  outer loop
    vertex 2.4999999999999996 31.700000000000003 0.0
    vertex 2.939992376674285 31.64207390469142 60.0
    vertex 2.4999999999999996 31.700000000000003 60.0
  endloop
endfacet
facet normal -0.9238795268089739 0.38268344613169036 0.0
  outer loop
    vertex 58.99999998833279 29.21701085340904 60.0
    vertex 58.972243173767815 29.149999978062247 0.0
    vertex 58.972243173767815 29.149999978062247 60.0
  endloop
endfacet
facet normal -0.9238795268089739 0.38268344613169036 0.0
  outer loop
    vertex 58.972243173767815 29.149999978062247 0.0
    vertex 58.99999998833279 29.21701085340904 60.0
    vertex 58.99999998833279 29.21701085340904 0.0
  endloop
endfacet
facet normal -0.9914448594288576 0.13052620699343365 0.0
  outer loop
    vertex 59.2 29.99999997466847 60.0
    vertex 59.142073898135145 29.560007598857336 0.0
    vertex 59.142073898135145 29.560007598857336 60.0
  endloop
endfacet
facet normal -0.9914448594288576 0.13052620699343365 0.0
  outer loop
    vertex 59.142073898135145 29.560007598857336 0.0
    vertex 59.2 29.99999997466847 60.0
    vertex 59.2 29.99999997466847 0.0
  endloop
endfacet
facet normal 0.6087614290087153 -0.7933533402912392 0.0
  outer loop
    vertex 1.5384644928349567 31.38665898166789 60.0
    vertex 1.2979184719828685 31.202081528017136 0.0
    vertex 1.5384644928349567 31.38665898166789 0.0
  endloop
endfacet
facet normal 0.6087614290087153 -0.7933533402912392 0.0
  outer loop
    vertex 1.2979184719828685 31.202081528017136 0.0
    vertex 1.5384644928349567 31.38665898166789 60.0
    vertex 1.2979184719828685 31.202081528017136 60.0
  endloop
endfacet
facet normal -0.6087614171870562 0.7933533493623172 0.0
  outer loop
    vertex 58.461535486502605 28.61334100400435 60.0
    vertex 58.70208151010506 28.797918454070757 0.0
    vertex 58.461535486502605 28.61334100400435 0.0
  endloop
endfacet
facet normal -0.6087614171870562 0.7933533493623172 0.0
  outer loop
    vertex 58.70208151010506 28.797918454070757 0.0
    vertex 58.461535486502605 28.61334100400435 60.0
    vertex 58.70208151010506 28.797918454070757 60.0
  endloop
endfacet
facet normal 0.6087614290087162 0.7933533402912385 0.0
  outer loop
    vertex 1.2979184719828685 28.797918471982868 60.0
    vertex 1.538464492834956 28.613341018332115 0.0
    vertex 1.2979184719828685 28.797918471982868 0.0
  endloop
endfacet
facet normal 0.6087614290087162 0.7933533402912385 0.0
  outer loop
    vertex 1.538464492834956 28.613341018332115 0.0
    vertex 1.2979184719828685 28.797918471982868 60.0
    vertex 1.538464492834956 28.613341018332115 60.0
  endloop
endfacet
facet normal 0.9238795325112841 0.3826834323650962 0.0
  outer loop
    vertex 0.9999999999999989 29.217010875760398 0.0
    vertex 1.0277568135664532 29.150000000000002 60.0
    vertex 1.0277568135664532 29.150000000000002 0.0
  endloop
endfacet
facet normal 0.9238795325112841 0.3826834323650962 0.0
  outer loop
    vertex 1.0277568135664532 29.150000000000002 60.0
    vertex 0.9999999999999989 29.217010875760398 0.0
    vertex 0.9999999999999989 29.217010875760398 60.0
  endloop
endfacet
facet normal -0.7933533402912384 0.6087614290087163 0.0
  outer loop
    vertex 3.972243186433544 29.150000000000002 60.0
    vertex 3.7020815280171293 28.797918471982868 0.0
    vertex 3.7020815280171293 28.797918471982868 60.0
  endloop
endfacet
facet normal -0.7933533402912384 0.6087614290087163 0.0
  outer loop
    vertex 3.7020815280171293 28.797918471982868 0.0
    vertex 3.972243186433544 29.150000000000002 60.0
    vertex 3.972243186433544 29.150000000000002 0.0
  endloop
endfacet
facet normal -0.9914448613738104 0.1305261922200514 0.0
  outer loop
    vertex 4.1999999999999975 30.0 60.0
    vertex 4.142073904691415 29.560007623325717 0.0
    vertex 4.142073904691415 29.560007623325717 60.0
  endloop
endfacet
facet normal -0.9914448613738104 0.1305261922200514 0.0
  outer loop
    vertex 4.142073904691415 29.560007623325717 0.0
    vertex 4.1999999999999975 30.0 60.0
    vertex 4.1999999999999975 30.0 0.0
  endloop
endfacet
facet normal 0.793353340291238 0.6087614290087172 0.0
  outer loop
    vertex 1.0277568135664532 29.150000000000002 0.0
    vertex 1.2979184719828685 28.797918471982868 60.0
    vertex 1.2979184719828685 28.797918471982868 0.0
  endloop
endfacet
facet normal 0.793353340291238 0.6087614290087172 0.0
  outer loop
    vertex 1.2979184719828685 28.797918471982868 60.0
    vertex 1.0277568135664532 29.150000000000002 0.0
    vertex 1.0277568135664532 29.150000000000002 60.0
  endloop
endfacet
facet normal -0.38268343236509106 0.9238795325112863 0.0
  outer loop
    vertex 2.9399923766742835 28.357926095308585 60.0
    vertex 3.3499999999999983 28.527756813566455 0.0
    vertex 2.9399923766742835 28.357926095308585 0.0
  endloop
endfacet
facet normal -0.38268343236509106 0.9238795325112863 0.0
  outer loop
    vertex 3.3499999999999983 28.527756813566455 0.0
    vertex 2.9399923766742835 28.357926095308585 60.0
    vertex 3.3499999999999983 28.527756813566455 60.0
  endloop
endfacet
facet normal -0.92387952680897 0.3826834461317001 0.0
  outer loop
    vertex 59.142073898135145 29.560007598857336 60.0
    vertex 58.99999998833279 29.21701085340904 0.0
    vertex 58.99999998833279 29.21701085340904 60.0
  endloop
endfacet
facet normal -0.92387952680897 0.3826834461317001 0.0
  outer loop
    vertex 58.99999998833279 29.21701085340904 0.0
    vertex 59.142073898135145 29.560007598857336 60.0
    vertex 59.142073898135145 29.560007598857336 0.0
  endloop
endfacet
facet normal -0.923879532511286 0.3826834323650919 0.0
  outer loop
    vertex 4.142073904691415 29.560007623325717 60.0
    vertex 3.972243186433544 29.150000000000002 0.0
    vertex 3.972243186433544 29.150000000000002 60.0
  endloop
endfacet
facet normal -0.923879532511286 0.3826834323650919 0.0
  outer loop
    vertex 3.972243186433544 29.150000000000002 0.0
    vertex 4.142073904691415 29.560007623325717 60.0
    vertex 4.142073904691415 29.560007623325717 0.0
  endloop
endfacet
facet normal 0.1305261922200531 -0.9914448613738103 0.0
  outer loop
    vertex 2.4999999999999996 31.700000000000003 60.0
    vertex 2.0600076233257143 31.64207390469142 0.0
    vertex 2.4999999999999996 31.700000000000003 0.0
  endloop
endfacet
facet normal 0.1305261922200531 -0.9914448613738103 0.0
  outer loop
    vertex 2.0600076233257143 31.64207390469142 0.0
    vertex 2.4999999999999996 31.700000000000003 60.0
    vertex 2.0600076233257143 31.64207390469142 60.0
  endloop
endfacet
facet normal 0.13052619222005288 0.9914448613738103 0.0
  outer loop
    vertex 2.060007623325713 28.357926095308585 60.0
    vertex 2.499999999999999 28.299999999999997 0.0
    vertex 2.060007623325713 28.357926095308585 0.0
  endloop
endfacet
facet normal 0.13052619222005288 0.9914448613738103 0.0
  outer loop
    vertex 2.499999999999999 28.299999999999997 0.0
    vertex 2.060007623325713 28.357926095308585 60.0
    vertex 2.499999999999999 28.299999999999997 60.0
  endloop
endfacet
facet normal -0.38268343236509106 -0.9238795325112863 -0.0
  outer loop
    vertex 3.3499999999999996 31.47224318643355 60.0
    vertex 2.939992376674285 31.64207390469142 0.0
    vertex 3.3499999999999996 31.47224318643355 0.0
  endloop
endfacet
facet normal -0.38268343236509106 -0.9238795325112863 -0.0
  outer loop
    vertex 2.939992376674285 31.64207390469142 0.0
    vertex 3.3499999999999996 31.47224318643355 60.0
    vertex 2.939992376674285 31.64207390469142 60.0
  endloop
endfacet
facet normal 0.7933533402912383 -0.6087614290087165 0.0
  outer loop
    vertex 1.2979184719828685 31.202081528017136 0.0
    vertex 1.0277568135664539 30.85 60.0
    vertex 1.0277568135664539 30.85 0.0
  endloop
endfacet
facet normal 0.7933533402912383 -0.6087614290087165 0.0
  outer loop
    vertex 1.0277568135664539 30.85 60.0
    vertex 1.2979184719828685 31.202081528017136 0.0
    vertex 1.2979184719828685 31.202081528017136 60.0
  endloop
endfacet
facet normal -0.9238795325112865 -0.38268343236509056 -0.0
  outer loop
    vertex 3.9722431864335452 30.85 60.0
    vertex 4.142073904691415 30.439992376674287 0.0
    vertex 4.142073904691415 30.439992376674287 60.0
  endloop
endfacet
facet normal -0.9238795325112865 -0.38268343236509056 -0.0
  outer loop
    vertex 4.142073904691415 30.439992376674287 0.0
    vertex 3.9722431864335452 30.85 60.0
    vertex 3.9722431864335452 30.85 0.0
  endloop
endfacet
facet normal 0.38268343236509106 0.9238795325112863 0.0
  outer loop
    vertex 1.649999999999999 28.527756813566455 60.0
    vertex 2.060007623325713 28.357926095308585 0.0
    vertex 1.649999999999999 28.527756813566455 0.0
  endloop
endfacet
facet normal 0.38268343236509106 0.9238795325112863 0.0
  outer loop
    vertex 2.060007623325713 28.357926095308585 0.0
    vertex 1.649999999999999 28.527756813566455 60.0
    vertex 2.060007623325713 28.357926095308585 60.0
  endloop
endfacet
facet normal -0.1305261922200531 0.9914448613738103 0.0
  outer loop
    vertex 2.499999999999999 28.299999999999997 60.0
    vertex 2.9399923766742835 28.357926095308585 0.0
    vertex 2.499999999999999 28.299999999999997 0.0
  endloop
endfacet
facet normal -0.1305261922200531 0.9914448613738103 0.0
  outer loop
    vertex 2.9399923766742835 28.357926095308585 0.0
    vertex 2.499999999999999 28.299999999999997 60.0
    vertex 2.9399923766742835 28.357926095308585 60.0
  endloop
endfacet
facet normal -0.6087614290087202 -0.7933533402912356 -0.0
  outer loop
    vertex 3.702081528017131 31.202081528017136 60.0
    vertex 3.3499999999999996 31.47224318643355 0.0
    vertex 3.702081528017131 31.202081528017136 0.0
  endloop
endfacet
facet normal -0.6087614290087202 -0.7933533402912356 -0.0
  outer loop
    vertex 3.3499999999999996 31.47224318643355 0.0
    vertex 3.702081528017131 31.202081528017136 60.0
    vertex 3.3499999999999996 31.47224318643355 60.0
  endloop
endfacet
facet normal -0.6087614290087194 0.7933533402912362 0.0
  outer loop
    vertex 3.3499999999999983 28.527756813566455 60.0
    vertex 3.7020815280171293 28.797918471982868 0.0
    vertex 3.3499999999999983 28.527756813566455 0.0
  endloop
endfacet
facet normal -0.6087614290087194 0.7933533402912362 0.0
  outer loop
    vertex 3.7020815280171293 28.797918471982868 0.0
    vertex 3.3499999999999983 28.527756813566455 60.0
    vertex 3.7020815280171293 28.797918471982868 60.0
  endloop
endfacet
facet normal -0.9914448613738104 -0.1305261922200514 -0.0
  outer loop
    vertex 4.142073904691415 30.439992376674287 60.0
    vertex 4.1999999999999975 30.0 0.0
    vertex 4.1999999999999975 30.0 60.0
  endloop
endfacet
facet normal -0.9914448613738104 -0.1305261922200514 -0.0
  outer loop
    vertex 4.1999999999999975 30.0 0.0
    vertex 4.142073904691415 30.439992376674287 60.0
    vertex 4.142073904691415 30.439992376674287 0.0
  endloop
endfacet
facet normal 0.608761429008728 0.7933533402912295 0.0
  outer loop
    vertex 1.538464492834956 28.613341018332115 60.0
    vertex 1.649999999999999 28.527756813566455 0.0
    vertex 1.538464492834956 28.613341018332115 0.0
  endloop
endfacet
facet normal 0.608761429008728 0.7933533402912295 0.0
  outer loop
    vertex 1.649999999999999 28.527756813566455 0.0
    vertex 1.538464492834956 28.613341018332115 60.0
    vertex 1.649999999999999 28.527756813566455 60.0
  endloop
endfacet
facet normal 0.9238795325112815 -0.3826834323651025 0.0
  outer loop
    vertex 1.0277568135664539 30.85 0.0
    vertex 0.9999999999999989 30.782989124239606 60.0
    vertex 0.9999999999999989 30.782989124239606 0.0
  endloop
endfacet
facet normal 0.9238795325112815 -0.3826834323651025 0.0
  outer loop
    vertex 0.9999999999999989 30.782989124239606 60.0
    vertex 1.0277568135664539 30.85 0.0
    vertex 1.0277568135664539 30.85 60.0
  endloop
endfacet
facet normal 0.9238795325112871 -0.382683432365089 0.0
  outer loop
    vertex 0.9999999999999989 30.782989124239606 0.0
    vertex 0.8579260953085831 30.439992376674287 60.0
    vertex 0.8579260953085831 30.439992376674287 0.0
  endloop
endfacet
facet normal 0.9238795325112871 -0.382683432365089 0.0
  outer loop
    vertex 0.8579260953085831 30.439992376674287 60.0
    vertex 0.9999999999999989 30.782989124239606 0.0
    vertex 0.9999999999999989 30.782989124239606 60.0
  endloop
endfacet
facet normal -0.7933533402912384 -0.6087614290087163 -0.0
  outer loop
    vertex 3.702081528017131 31.202081528017136 60.0
    vertex 3.9722431864335452 30.85 0.0
    vertex 3.9722431864335452 30.85 60.0
  endloop
endfacet
facet normal -0.7933533402912384 -0.6087614290087163 -0.0
  outer loop
    vertex 3.9722431864335452 30.85 0.0
    vertex 3.702081528017131 31.202081528017136 60.0
    vertex 3.702081528017131 31.202081528017136 0.0
  endloop
endfacet
facet normal 0.38268343236509106 -0.9238795325112863 0.0
  outer loop
    vertex 2.0600076233257143 31.64207390469142 60.0
    vertex 1.6499999999999997 31.47224318643355 0.0
    vertex 2.0600076233257143 31.64207390469142 0.0
  endloop
endfacet
facet normal 0.38268343236509106 -0.9238795325112863 0.0
  outer loop
    vertex 1.6499999999999997 31.47224318643355 0.0
    vertex 2.0600076233257143 31.64207390469142 60.0
    vertex 1.6499999999999997 31.47224318643355 60.0
  endloop
endfacet
facet normal 0.6087614290087274 -0.79335334029123 0.0
  outer loop
    vertex 1.6499999999999997 31.47224318643355 60.0
    vertex 1.5384644928349567 31.38665898166789 0.0
    vertex 1.6499999999999997 31.47224318643355 0.0
  endloop
endfacet
facet normal 0.6087614290087274 -0.79335334029123 0.0
  outer loop
    vertex 1.5384644928349567 31.38665898166789 0.0
    vertex 1.6499999999999997 31.47224318643355 60.0
    vertex 1.5384644928349567 31.38665898166789 60.0
  endloop
endfacet
facet normal 0.9914448613738104 0.1305261922200514 0.0
  outer loop
    vertex 0.7999999999999993 30.0 0.0
    vertex 0.8579260953085831 29.560007623325717 60.0
    vertex 0.8579260953085831 29.560007623325717 0.0
  endloop
endfacet
facet normal 0.9914448613738104 0.1305261922200514 0.0
  outer loop
    vertex 0.8579260953085831 29.560007623325717 60.0
    vertex 0.7999999999999993 30.0 0.0
    vertex 0.7999999999999993 30.0 60.0
  endloop
endfacet
facet normal 0.9914448613738103 -0.13052619222005218 0.0
  outer loop
    vertex 0.8579260953085831 30.439992376674287 0.0
    vertex 0.7999999999999993 30.0 60.0
    vertex 0.7999999999999993 30.0 0.0
  endloop
endfacet
facet normal 0.9914448613738103 -0.13052619222005218 0.0
  outer loop
    vertex 0.7999999999999993 30.0 60.0
    vertex 0.8579260953085831 30.439992376674287 0.0
    vertex 0.8579260953085831 30.439992376674287 60.0
  endloop
endfacet
facet normal 0.0 0.0 1.0
  outer loop
    vertex 60.0 54.000000000000014 60.0
    vertex 59.00000000000001 56.00000000000006 60.0
    vertex 59.00000000000001 54.000000000000014 60.0
  endloop
endfacet
facet normal 0.0 0.0 1.0
  outer loop
    vertex 55.80000000000001 30.000000025331456 60.0
    vertex 56.20590484645313 34.829629150728465 60.0
    vertex 55.000000064522716 34.33012705617435 60.0
  endloop
endfacet
facet normal 0.0 0.0 1.0
  outer loop
    vertex 56.20590484645313 34.829629150728465 60.0
    vertex 55.80000000000001 30.000000025331456 60.0
    vertex 55.85792610186487 30.43999240114259 60.0
  endloop
endfacet
facet normal 0.0 0.0 1.0
  outer loop
    vertex 56.20590484645313 34.829629150728465 60.0
    vertex 55.85792610186487 30.43999240114259 60.0
    vertex 56.02775682623222 30.850000021937674 60.0
  endloop
endfacet
facet normal 0.0 0.0 1.0
  outer loop
    vertex 56.20590484645313 34.829629150728465 60.0
    vertex 56.02775682623222 30.850000021937674 60.0
    vertex 56.29791848989496 31.202081545929165 60.0
  endloop
endfacet
facet normal 0.0 0.0 1.0
  outer loop
    vertex 56.20590484645313 34.829629150728465 60.0
    vertex 56.29791848989496 31.202081545929165 60.0
    vertex 57.5000000745044 34.99999999999996 60.0
  endloop
endfacet
facet normal 0.0 0.0 1.0
  outer loop
    vertex 57.5000000745044 34.99999999999996 60.0
    vertex 56.29791848989496 31.202081545929165 60.0
    vertex 56.650000021937736 31.472243199099253 60.0
  endloop
endfacet
facet normal 0.0 0.0 1.0
  outer loop
    vertex 57.5000000745044 34.99999999999996 60.0
    vertex 56.650000021937736 31.472243199099253 60.0
    vertex 57.06000764779407 31.64207391124765 60.0
  endloop
endfacet
facet normal 0.0 0.0 1.0
  outer loop
    vertex 57.5000000745044 34.99999999999996 60.0
    vertex 57.06000764779407 31.64207391124765 60.0
    vertex 57.500000025331495 31.699999999999964 60.0
  endloop
endfacet
facet normal 0.0 0.0 1.0
  outer loop
    vertex 57.5000000745044 34.99999999999996 60.0
    vertex 57.500000025331495 31.699999999999964 60.0
    vertex 57.939992401142646 31.642073898135106 60.0
  endloop
endfacet
facet normal 0.0 0.0 1.0
  outer loop
    vertex 57.5000000745044 34.99999999999996 60.0
    vertex 57.939992401142646 31.642073898135106 60.0
    vertex 58.794095297478336 34.829629112162145 60.0
  endloop
endfacet
facet normal 0.0 0.0 1.0
  outer loop
    vertex 58.794095297478336 34.829629112162145 60.0
    vertex 57.939992401142646 31.642073898135106 60.0
    vertex 58.35000002193773 31.472243173767765 60.0
  endloop
endfacet
facet normal 0.0 0.0 1.0
  outer loop
    vertex 58.794095297478336 34.829629112162145 60.0
    vertex 58.35000002193773 31.472243173767765 60.0
    vertex 58.4615355278275 31.386658967340125 60.0
  endloop
endfacet
facet normal 0.0 0.0 1.0
  outer loop
    vertex 58.794095297478336 34.829629112162145 60.0
    vertex 58.4615355278275 31.386658967340125 60.0
    vertex 58.70208154592921 31.20208151010502 60.0
  endloop
endfacet
facet normal 0.0 0.0 1.0
  outer loop
    vertex 58.794095297478336 34.829629112162145 60.0
    vertex 58.70208154592921 31.20208151010502 60.0
    vertex 58.9722431990993 30.849999978062247 60.0
  endloop
endfacet
facet normal 0.0 0.0 1.0
  outer loop
    vertex 58.794095297478336 34.829629112162145 60.0
    vertex 58.9722431990993 30.849999978062247 60.0
    vertex 59.00000007069485 34.74434055894393 60.0
  endloop
endfacet
facet normal 0.0 0.0 1.0
  outer loop
    vertex 59.00000007069485 34.74434055894393 60.0
    vertex 58.9722431990993 30.849999978062247 60.0
    vertex 59.00000001166722 30.782989101888248 60.0
  endloop
endfacet
facet normal 0.0 0.0 1.0
  outer loop
    vertex 59.00000007069485 34.74434055894393 60.0
    vertex 59.00000001166722 30.782989101888248 60.0
    vertex 59.14207391124769 30.439992352205905 60.0
  endloop
endfacet
facet normal 0.0 0.0 1.0
  outer loop
    vertex -3.0 1.9999999999999998 60.0
    vertex 0.9999999999999996 6.0 60.0
    vertex -3.0 60.0 60.0
  endloop
endfacet
facet normal 0.0 0.0 1.0
  outer loop
    vertex 0.9999999999999996 6.0 60.0
    vertex -3.0 1.9999999999999998 60.0
    vertex 63.0 1.9999999999999998 60.0
  endloop
endfacet
facet normal 0.0 0.0 1.0
  outer loop
    vertex -3.0 60.0 60.0
    vertex 0.9999999999999996 6.0 60.0
    vertex 0.0 51.99999999999999 60.0
  endloop
endfacet
facet normal 0.0 0.0 1.0
  outer loop
    vertex 0.0 51.99999999999999 60.0
    vertex 0.9999999999999996 6.0 60.0
    vertex 0.7999999999999993 30.0 60.0
  endloop
endfacet
facet normal 0.0 0.0 1.0
  outer loop
    vertex 0.7999999999999993 30.0 60.0
    vertex 0.9999999999999996 6.0 60.0
    vertex 0.8579260953085831 29.560007623325717 60.0
  endloop
endfacet
facet normal 0.0 0.0 1.0
  outer loop
    vertex 0.8579260953085831 29.560007623325717 60.0
    vertex 0.9999999999999996 6.0 60.0
    vertex 0.9999999999999989 25.255659418704717 60.0
  endloop
endfacet
facet normal 0.0 0.0 1.0
  outer loop
    vertex 0.9999999999999996 6.0 60.0
    vertex 63.0 1.9999999999999998 60.0
    vertex 59.00000000000001 6.0 60.0
  endloop
endfacet
facet normal 0.0 0.0 1.0
  outer loop
    vertex 59.00000000000001 6.0 60.0
    vertex 63.0 1.9999999999999998 60.0
    vertex 59.142073898135145 29.560007598857336 60.0
  endloop
endfacet
facet normal 0.0 0.0 1.0
  outer loop
    vertex 59.142073898135145 29.560007598857336 60.0
    vertex 63.0 1.9999999999999998 60.0
    vertex 59.2 29.99999997466847 60.0
  endloop
endfacet
facet normal 0.0 0.0 1.0
  outer loop
    vertex 59.2 29.99999997466847 60.0
    vertex 63.0 1.9999999999999998 60.0
    vertex 60.0 51.99999999999999 60.0
  endloop
endfacet
facet normal 0.0 0.0 1.0
  outer loop
    vertex 60.0 51.99999999999999 60.0
    vertex 63.0 1.9999999999999998 60.0
    vertex 60.0 54.000000000000014 60.0
  endloop
endfacet
facet normal 0.0 0.0 1.0
  outer loop
    vertex -3.0 60.0 60.0
    vertex 0.9999999999999996 56.00000000000006 60.0
    vertex 63.0 60.0 60.0
  endloop
endfacet
facet normal 0.0 0.0 1.0
  outer loop
    vertex 0.9999999999999996 56.00000000000006 60.0
    vertex -3.0 60.0 60.0
    vertex 0.0 54.000000000000014 60.0
  endloop
endfacet
facet normal 0.0 0.0 1.0
  outer loop
    vertex 0.0 54.000000000000014 60.0
    vertex -3.0 60.0 60.0
    vertex 0.0 51.99999999999999 60.0
  endloop
endfacet
facet normal 0.0 0.0 1.0
  outer loop
    vertex 0.9999999999999996 56.00000000000006 60.0
    vertex 0.0 54.000000000000014 60.0
    vertex 0.9999999999999996 54.000000000000014 60.0
  endloop
endfacet
facet normal 0.0 0.0 1.0
  outer loop
    vertex 63.0 60.0 60.0
    vertex 0.9999999999999996 56.00000000000006 60.0
    vertex 59.00000000000001 56.00000000000006 60.0
  endloop
endfacet
facet normal 0.0 0.0 1.0
  outer loop
    vertex 63.0 60.0 60.0
    vertex 59.00000000000001 56.00000000000006 60.0
    vertex 60.0 54.000000000000014 60.0
  endloop
endfacet
facet normal 0.0 0.0 1.0
  outer loop
    vertex 63.0 60.0 60.0
    vertex 60.0 54.000000000000014 60.0
    vertex 63.0 1.9999999999999998 60.0
  endloop
endfacet
facet normal 0.0 0.0 1.0
  outer loop
    vertex 59.00000007069485 34.74434055894393 60.0
    vertex 60.0 51.99999999999999 60.0
    vertex 59.00000000000001 51.99999999999999 60.0
  endloop
endfacet
facet normal 0.0 0.0 1.0
  outer loop
    vertex 60.0 51.99999999999999 60.0
    vertex 59.00000007069485 34.74434055894393 60.0
    vertex 59.14207391124769 30.439992352205905 60.0
  endloop
endfacet
facet normal 0.0 0.0 1.0
  outer loop
    vertex 60.0 51.99999999999999 60.0
    vertex 59.14207391124769 30.439992352205905 60.0
    vertex 59.2 29.99999997466847 60.0
  endloop
endfacet
facet normal 0.0 0.0 1.0
  outer loop
    vertex 52.67037084927153 28.705904846453073 60.0
    vertex 52.67037088783781 31.294095297478282 60.0
    vertex 52.500000000000014 30.00000007450435 60.0
  endloop
endfacet
facet normal 0.0 0.0 1.0
  outer loop
    vertex 52.67037088783781 31.294095297478282 60.0
    vertex 52.67037084927153 28.705904846453073 60.0
    vertex 53.16987294382563 27.500000064522656 60.0
  endloop
endfacet
facet normal 0.0 0.0 1.0
  outer loop
    vertex 52.67037088783781 31.294095297478282 60.0
    vertex 53.16987294382563 27.500000064522656 60.0
    vertex 53.16987301833 32.50000006452266 60.0
  endloop
endfacet
facet normal 0.0 0.0 1.0
  outer loop
    vertex 53.16987301833 32.50000006452266 60.0
    vertex 53.16987294382563 27.500000064522656 60.0
    vertex 53.96446604138472 26.464466146749785 60.0
  endloop
endfacet
facet normal 0.0 0.0 1.0
  outer loop
    vertex 53.16987301833 32.50000006452266 60.0
    vertex 53.96446604138472 26.464466146749785 60.0
    vertex 53.96446614674983 33.53553395861526 60.0
  endloop
endfacet
facet normal 0.0 0.0 1.0
  outer loop
    vertex 53.96446614674983 33.53553395861526 60.0
    vertex 53.96446604138472 26.464466146749785 60.0
    vertex 54.99999993547733 25.66987301832997 60.0
  endloop
endfacet
facet normal 0.0 0.0 1.0
  outer loop
    vertex 53.96446614674983 33.53553395861526 60.0
    vertex 54.99999993547733 25.66987301832997 60.0
    vertex 55.000000064522716 34.33012705617435 60.0
  endloop
endfacet
facet normal 0.0 0.0 1.0
  outer loop
    vertex 55.000000064522716 34.33012705617435 60.0
    vertex 54.99999993547733 25.66987301832997 60.0
    vertex 56.20590470252168 25.170370887837777 60.0
  endloop
endfacet
facet normal 0.0 0.0 1.0
  outer loop
    vertex 55.000000064522716 34.33012705617435 60.0
    vertex 56.20590470252168 25.170370887837777 60.0
    vertex 55.80000000000001 30.000000025331456 60.0
  endloop
endfacet
facet normal 0.0 0.0 1.0
  outer loop
    vertex 55.80000000000001 30.000000025331456 60.0
    vertex 56.20590470252168 25.170370887837777 60.0
    vertex 55.85792608875232 29.56000764779402 60.0
  endloop
endfacet
facet normal 0.0 0.0 1.0
  outer loop
    vertex 55.85792608875232 29.56000764779402 60.0
    vertex 56.20590470252168 25.170370887837777 60.0
    vertex 56.02775680090071 29.15000002193768 60.0
  endloop
endfacet
facet normal 0.0 0.0 1.0
  outer loop
    vertex 56.02775680090071 29.15000002193768 60.0
    vertex 56.20590470252168 25.170370887837777 60.0
    vertex 56.2979184540708 28.7979184898949 60.0
  endloop
endfacet
facet normal 0.0 0.0 1.0
  outer loop
    vertex 56.2979184540708 28.7979184898949 60.0
    vertex 56.20590470252168 25.170370887837777 60.0
    vertex 57.499999925495615 24.99999999999996 60.0
  endloop
endfacet
facet normal 0.0 0.0 1.0
  outer loop
    vertex 56.2979184540708 28.7979184898949 60.0
    vertex 57.499999925495615 24.99999999999996 60.0
    vertex 56.64999997806228 28.52775682623216 60.0
  endloop
endfacet
facet normal 0.0 0.0 1.0
  outer loop
    vertex 56.64999997806228 28.52775682623216 60.0
    vertex 57.499999925495615 24.99999999999996 60.0
    vertex 57.06000759885737 28.35792610186482 60.0
  endloop
endfacet
facet normal 0.0 0.0 1.0
  outer loop
    vertex 57.06000759885737 28.35792610186482 60.0
    vertex 57.499999925495615 24.99999999999996 60.0
    vertex 57.49999997466852 28.299999999999958 60.0
  endloop
endfacet
facet normal 0.0 0.0 1.0
  outer loop
    vertex 57.49999997466852 28.299999999999958 60.0
    vertex 57.499999925495615 24.99999999999996 60.0
    vertex 58.794095153546884 25.170370849271464 60.0
  endloop
endfacet
facet normal 0.0 0.0 1.0
  outer loop
    vertex 57.49999997466852 28.299999999999958 60.0
    vertex 58.794095153546884 25.170370849271464 60.0
    vertex 57.93999235220594 28.35792608875227 60.0
  endloop
endfacet
facet normal 0.0 0.0 1.0
  outer loop
    vertex 57.93999235220594 28.35792608875227 60.0
    vertex 58.794095153546884 25.170370849271464 60.0
    vertex 58.34999997806228 28.527756800900672 60.0
  endloop
endfacet
facet normal 0.0 0.0 1.0
  outer loop
    vertex 58.34999997806228 28.527756800900672 60.0
    vertex 58.794095153546884 25.170370849271464 60.0
    vertex 58.461535486502605 28.61334100400435 60.0
  endloop
endfacet
facet normal 0.0 0.0 1.0
  outer loop
    vertex 58.461535486502605 28.61334100400435 60.0
    vertex 58.794095153546884 25.170370849271464 60.0
    vertex 58.70208151010506 28.797918454070757 60.0
  endloop
endfacet
facet normal 0.0 0.0 1.0
  outer loop
    vertex 58.70208151010506 28.797918454070757 60.0
    vertex 58.794095153546884 25.170370849271464 60.0
    vertex 58.972243173767815 29.149999978062247 60.0
  endloop
endfacet
facet normal 0.0 0.0 1.0
  outer loop
    vertex 58.972243173767815 29.149999978062247 60.0
    vertex 58.794095153546884 25.170370849271464 60.0
    vertex 58.99999992930516 25.25565939635336 60.0
  endloop
endfacet
facet normal 0.0 0.0 1.0
  outer loop
    vertex 58.972243173767815 29.149999978062247 60.0
    vertex 58.99999992930516 25.25565939635336 60.0
    vertex 58.99999998833279 29.21701085340904 60.0
  endloop
endfacet
facet normal 0.0 0.0 1.0
  outer loop
    vertex 58.99999998833279 29.21701085340904 60.0
    vertex 58.99999992930516 25.25565939635336 60.0
    vertex 59.00000000000001 6.0 60.0
  endloop
endfacet
facet normal 0.0 0.0 1.0
  outer loop
    vertex 58.99999998833279 29.21701085340904 60.0
    vertex 59.00000000000001 6.0 60.0
    vertex 59.142073898135145 29.560007598857336 60.0
  endloop
endfacet
facet normal 0.0 0.0 1.0
  outer loop
    vertex 0.9999999999999989 25.255659418704717 60.0
    vertex 0.9999999999999989 29.217010875760398 60.0
    vertex 0.8579260953085831 29.560007623325717 60.0
  endloop
endfacet
facet normal 0.0 0.0 1.0
  outer loop
    vertex 0.9999999999999989 29.217010875760398 60.0
    vertex 0.9999999999999989 25.255659418704717 60.0
    vertex 1.2059047744873914 25.17037086855466 60.0
  endloop
endfacet
facet normal 0.0 0.0 1.0
  outer loop
    vertex 0.9999999999999989 29.217010875760398 60.0
    vertex 1.2059047744873914 25.17037086855466 60.0
    vertex 1.0277568135664532 29.150000000000002 60.0
  endloop
endfacet
facet normal 0.0 0.0 1.0
  outer loop
    vertex 1.0277568135664532 29.150000000000002 60.0
    vertex 1.2059047744873914 25.17037086855466 60.0
    vertex 1.2979184719828685 28.797918471982868 60.0
  endloop
endfacet
facet normal 0.0 0.0 1.0
  outer loop
    vertex 1.2979184719828685 28.797918471982868 60.0
    vertex 1.2059047744873914 25.17037086855466 60.0
    vertex 2.4999999999999982 25.000000000000004 60.0
  endloop
endfacet
facet normal 0.0 0.0 1.0
  outer loop
    vertex 1.2979184719828685 28.797918471982868 60.0
    vertex 2.4999999999999982 25.000000000000004 60.0
    vertex 1.538464492834956 28.613341018332115 60.0
  endloop
endfacet
facet normal 0.0 0.0 1.0
  outer loop
    vertex 1.538464492834956 28.613341018332115 60.0
    vertex 2.4999999999999982 25.000000000000004 60.0
    vertex 1.649999999999999 28.527756813566455 60.0
  endloop
endfacet
facet normal 0.0 0.0 1.0
  outer loop
    vertex 1.649999999999999 28.527756813566455 60.0
    vertex 2.4999999999999982 25.000000000000004 60.0
    vertex 2.060007623325713 28.357926095308585 60.0
  endloop
endfacet
facet normal 0.0 0.0 1.0
  outer loop
    vertex 2.060007623325713 28.357926095308585 60.0
    vertex 2.4999999999999982 25.000000000000004 60.0
    vertex 2.499999999999999 28.299999999999997 60.0
  endloop
endfacet
facet normal 0.0 0.0 1.0
  outer loop
    vertex 2.499999999999999 28.299999999999997 60.0
    vertex 2.4999999999999982 25.000000000000004 60.0
    vertex 3.7940952255126006 25.17037086855466 60.0
  endloop
endfacet
facet normal 0.0 0.0 1.0
  outer loop
    vertex 2.499999999999999 28.299999999999997 60.0
    vertex 3.7940952255126006 25.17037086855466 60.0
    vertex 2.9399923766742835 28.357926095308585 60.0
  endloop
endfacet
facet normal 0.0 0.0 1.0
  outer loop
    vertex 2.9399923766742835 28.357926095308585 60.0
    vertex 3.7940952255126006 25.17037086855466 60.0
    vertex 3.3499999999999983 28.527756813566455 60.0
  endloop
endfacet
facet normal 0.0 0.0 1.0
  outer loop
    vertex 3.3499999999999983 28.527756813566455 60.0
    vertex 3.7940952255126006 25.17037086855466 60.0
    vertex 3.7020815280171293 28.797918471982868 60.0
  endloop
endfacet
facet normal 0.0 0.0 1.0
  outer loop
    vertex 3.7020815280171293 28.797918471982868 60.0
    vertex 3.7940952255126006 25.17037086855466 60.0
    vertex 3.972243186433544 29.150000000000002 60.0
  endloop
endfacet
facet normal 0.0 0.0 1.0
  outer loop
    vertex 3.972243186433544 29.150000000000002 60.0
    vertex 3.7940952255126006 25.17037086855466 60.0
    vertex 4.9999999999999964 25.669872981077805 60.0
  endloop
endfacet
facet normal 0.0 0.0 1.0
  outer loop
    vertex 3.972243186433544 29.150000000000002 60.0
    vertex 4.9999999999999964 25.669872981077805 60.0
    vertex 4.142073904691415 29.560007623325717 60.0
  endloop
endfacet
facet normal 0.0 0.0 1.0
  outer loop
    vertex 4.142073904691415 29.560007623325717 60.0
    vertex 4.9999999999999964 25.669872981077805 60.0
    vertex 4.1999999999999975 30.0 60.0
  endloop
endfacet
facet normal 0.0 0.0 1.0
  outer loop
    vertex 1.0277568135664539 30.85 60.0
    vertex 0.9999999999999996 34.74434058129529 60.0
    vertex 0.9999999999999989 30.782989124239606 60.0
  endloop
endfacet
facet normal 0.0 0.0 1.0
  outer loop
    vertex 0.9999999999999996 34.74434058129529 60.0
    vertex 1.0277568135664539 30.85 60.0
    vertex 1.2059047744873956 34.829629131445344 60.0
  endloop
endfacet
facet normal 0.0 0.0 1.0
  outer loop
    vertex 1.2059047744873956 34.829629131445344 60.0
    vertex 1.0277568135664539 30.85 60.0
    vertex 1.2979184719828685 31.202081528017136 60.0
  endloop
endfacet
facet normal 0.0 0.0 1.0
  outer loop
    vertex 1.2059047744873956 34.829629131445344 60.0
    vertex 1.2979184719828685 31.202081528017136 60.0
    vertex 2.4999999999999996 35.0 60.0
  endloop
endfacet
facet normal 0.0 0.0 1.0
  outer loop
    vertex 2.4999999999999996 35.0 60.0
    vertex 1.2979184719828685 31.202081528017136 60.0
    vertex 1.5384644928349567 31.38665898166789 60.0
  endloop
endfacet
facet normal 0.0 0.0 1.0
  outer loop
    vertex 2.4999999999999996 35.0 60.0
    vertex 1.5384644928349567 31.38665898166789 60.0
    vertex 1.6499999999999997 31.47224318643355 60.0
  endloop
endfacet
facet normal 0.0 0.0 1.0
  outer loop
    vertex 2.4999999999999996 35.0 60.0
    vertex 1.6499999999999997 31.47224318643355 60.0
    vertex 2.0600076233257143 31.64207390469142 60.0
  endloop
endfacet
facet normal 0.0 0.0 1.0
  outer loop
    vertex 2.4999999999999996 35.0 60.0
    vertex 2.0600076233257143 31.64207390469142 60.0
    vertex 2.4999999999999996 31.700000000000003 60.0
  endloop
endfacet
facet normal 0.0 0.0 1.0
  outer loop
    vertex 2.4999999999999996 35.0 60.0
    vertex 2.4999999999999996 31.700000000000003 60.0
    vertex 2.939992376674285 31.64207390469142 60.0
  endloop
endfacet
facet normal 0.0 0.0 1.0
  outer loop
    vertex 2.4999999999999996 35.0 60.0
    vertex 2.939992376674285 31.64207390469142 60.0
    vertex 3.7940952255126037 34.829629131445344 60.0
  endloop
endfacet
facet normal 0.0 0.0 1.0
  outer loop
    vertex 3.7940952255126037 34.829629131445344 60.0
    vertex 2.939992376674285 31.64207390469142 60.0
    vertex 3.3499999999999996 31.47224318643355 60.0
  endloop
endfacet
facet normal 0.0 0.0 1.0
  outer loop
    vertex 3.7940952255126037 34.829629131445344 60.0
    vertex 3.3499999999999996 31.47224318643355 60.0
    vertex 3.702081528017131 31.202081528017136 60.0
  endloop
endfacet
facet normal 0.0 0.0 1.0
  outer loop
    vertex 3.7940952255126037 34.829629131445344 60.0
    vertex 3.702081528017131 31.202081528017136 60.0
    vertex 3.9722431864335452 30.85 60.0
  endloop
endfacet
facet normal 0.0 0.0 1.0
  outer loop
    vertex 3.7940952255126037 34.829629131445344 60.0
    vertex 3.9722431864335452 30.85 60.0
    vertex 4.999999999999999 34.33012701892219 60.0
  endloop
endfacet
facet normal 0.0 0.0 1.0
  outer loop
    vertex 4.999999999999999 34.33012701892219 60.0
    vertex 3.9722431864335452 30.85 60.0
    vertex 4.142073904691415 30.439992376674287 60.0
  endloop
endfacet
facet normal 0.0 0.0 1.0
  outer loop
    vertex 4.999999999999999 34.33012701892219 60.0
    vertex 4.142073904691415 30.439992376674287 60.0
    vertex 4.1999999999999975 30.0 60.0
  endloop
endfacet
facet normal 0.0 0.0 1.0
  outer loop
    vertex 4.999999999999999 34.33012701892219 60.0
    vertex 4.1999999999999975 30.0 60.0
    vertex 4.9999999999999964 25.669872981077805 60.0
  endloop
endfacet
facet normal 0.0 0.0 1.0
  outer loop
    vertex 4.999999999999999 34.33012701892219 60.0
    vertex 4.9999999999999964 25.669872981077805 60.0
    vertex 6.035533905932736 26.464466094067262 60.0
  endloop
endfacet
facet normal 0.0 0.0 1.0
  outer loop
    vertex 4.999999999999999 34.33012701892219 60.0
    vertex 6.035533905932736 26.464466094067262 60.0
    vertex 6.035533905932736 33.53553390593274 60.0
  endloop
endfacet
facet normal 0.0 0.0 1.0
  outer loop
    vertex 6.035533905932736 33.53553390593274 60.0
    vertex 6.035533905932736 26.464466094067262 60.0
    vertex 6.830127018922191 27.5 60.0
  endloop
endfacet
facet normal 0.0 0.0 1.0
  outer loop
    vertex 6.035533905932736 33.53553390593274 60.0
    vertex 6.830127018922191 27.5 60.0
    vertex 6.830127018922193 32.5 60.0
  endloop
endfacet
facet normal 0.0 0.0 1.0
  outer loop
    vertex 6.830127018922193 32.5 60.0
    vertex 6.830127018922191 27.5 60.0
    vertex 7.329629131445339 28.705904774487394 60.0
  endloop
endfacet
facet normal 0.0 0.0 1.0
  outer loop
    vertex 6.830127018922193 32.5 60.0
    vertex 7.329629131445339 28.705904774487394 60.0
    vertex 7.329629131445341 31.294095225512603 60.0
  endloop
endfacet
facet normal 0.0 0.0 1.0
  outer loop
    vertex 7.329629131445341 31.294095225512603 60.0
    vertex 7.329629131445339 28.705904774487394 60.0
    vertex 7.499999999999999 30.0 60.0
  endloop
endfacet
facet normal 0.0 0.0 1.0
  outer loop
    vertex 0.7999999999999993 30.0 60.0
    vertex 0.9999999999999996 51.99999999999999 60.0
    vertex 0.0 51.99999999999999 60.0
  endloop
endfacet
facet normal 0.0 0.0 1.0
  outer loop
    vertex 0.9999999999999996 51.99999999999999 60.0
    vertex 0.7999999999999993 30.0 60.0
    vertex 0.8579260953085831 30.439992376674287 60.0
  endloop
endfacet
facet normal 0.0 0.0 1.0
  outer loop
    vertex 0.9999999999999996 51.99999999999999 60.0
    vertex 0.8579260953085831 30.439992376674287 60.0
    vertex 0.9999999999999989 30.782989124239606 60.0
  endloop
endfacet
facet normal 0.0 0.0 1.0
  outer loop
    vertex 0.9999999999999996 51.99999999999999 60.0
    vertex 0.9999999999999989 30.782989124239606 60.0
    vertex 0.9999999999999996 34.74434058129529 60.0
  endloop
endfacet
facet normal 1.0 -2.0427837717774526e-17 0.0
  outer loop
    vertex 0.9999999999999996 51.99999999999999 0.0
    vertex 0.9999999999999996 34.74434058129529 60.0
    vertex 0.9999999999999996 34.74434058129529 0.0
  endloop
endfacet
facet normal 1.0 -2.0427837717774526e-17 0.0
  outer loop
    vertex 0.9999999999999996 34.74434058129529 60.0
    vertex 0.9999999999999996 51.99999999999999 0.0
    vertex 0.9999999999999996 51.99999999999999 60.0
  endloop
endfacet
facet normal 0.6087614290087203 0.7933533402912354 0.0
  outer loop
    vertex 4.999999999999999 34.33012701892219 60.0
    vertex 6.035533905932736 33.53553390593274 0.0
    vertex 4.999999999999999 34.33012701892219 0.0
  endloop
endfacet
facet normal 0.6087614290087203 0.7933533402912354 0.0
  outer loop
    vertex 6.035533905932736 33.53553390593274 0.0
    vertex 4.999999999999999 34.33012701892219 60.0
    vertex 6.035533905932736 33.53553390593274 60.0
  endloop
endfacet
facet normal 0.7933533402912342 0.608761429008722 0.0
  outer loop
    vertex 6.035533905932736 33.53553390593274 0.0
    vertex 6.830127018922193 32.5 60.0
    vertex 6.830127018922193 32.5 0.0
  endloop
endfacet
facet normal 0.7933533402912342 0.608761429008722 0.0
  outer loop
    vertex 6.830127018922193 32.5 60.0
    vertex 6.035533905932736 33.53553390593274 0.0
    vertex 6.035533905932736 33.53553390593274 60.0
  endloop
endfacet
facet normal -0.13052619222005177 0.9914448613738104 0.0
  outer loop
    vertex 1.2059047744873956 34.829629131445344 60.0
    vertex 2.4999999999999996 35.0 0.0
    vertex 1.2059047744873956 34.829629131445344 0.0
  endloop
endfacet
facet normal -0.13052619222005177 0.9914448613738104 0.0
  outer loop
    vertex 2.4999999999999996 35.0 0.0
    vertex 1.2059047744873956 34.829629131445344 60.0
    vertex 2.4999999999999996 35.0 60.0
  endloop
endfacet
facet normal -0.0 -1.0 -0.0
  outer loop
    vertex 63.0 1.9999999999999998 60.0
    vertex -3.0 1.9999999999999998 0.0
    vertex 63.0 1.9999999999999998 0.0
  endloop
endfacet
facet normal -0.0 -1.0 -0.0
  outer loop
    vertex -3.0 1.9999999999999998 0.0
    vertex 63.0 1.9999999999999998 60.0
    vertex -3.0 1.9999999999999998 60.0
  endloop
endfacet
facet normal -1.0 0.0 0.0
  outer loop
    vertex -3.0 60.0 60.0
    vertex -3.0 1.9999999999999998 0.0
    vertex -3.0 1.9999999999999998 60.0
  endloop
endfacet
facet normal -1.0 0.0 0.0
  outer loop
    vertex -3.0 1.9999999999999998 0.0
    vertex -3.0 60.0 60.0
    vertex -3.0 60.0 0.0
  endloop
endfacet
facet normal 0.0 1.0 0.0
  outer loop
    vertex -3.0 60.0 60.0
    vertex 63.0 60.0 0.0
    vertex -3.0 60.0 0.0
  endloop
endfacet
facet normal 0.0 1.0 0.0
  outer loop
    vertex 63.0 60.0 0.0
    vertex -3.0 60.0 60.0
    vertex 63.0 60.0 60.0
  endloop
endfacet
facet normal 1.0 0.0 0.0
  outer loop
    vertex 63.0 60.0 0.0
    vertex 63.0 1.9999999999999998 60.0
    vertex 63.0 1.9999999999999998 0.0
  endloop
endfacet
facet normal 1.0 0.0 0.0
  outer loop
    vertex 63.0 1.9999999999999998 60.0
    vertex 63.0 60.0 0.0
    vertex 63.0 60.0 60.0
  endloop
endfacet
facet normal -0.38268343236508756 0.9238795325112878 0.0
  outer loop
    vertex 0.9999999999999996 34.74434058129529 60.0
    vertex 1.2059047744873956 34.829629131445344 0.0
    vertex 0.9999999999999996 34.74434058129529 0.0
  endloop
endfacet
facet normal -0.38268343236508756 0.9238795325112878 0.0
  outer loop
    vertex 1.2059047744873956 34.829629131445344 0.0
    vertex 0.9999999999999996 34.74434058129529 60.0
    vertex 1.2059047744873956 34.829629131445344 60.0
  endloop
endfacet
facet normal 0.13052619222005168 0.9914448613738104 0.0
  outer loop
    vertex 2.4999999999999996 35.0 60.0
    vertex 3.7940952255126037 34.829629131445344 0.0
    vertex 2.4999999999999996 35.0 0.0
  endloop
endfacet
facet normal 0.13052619222005168 0.9914448613738104 0.0
  outer loop
    vertex 3.7940952255126037 34.829629131445344 0.0
    vertex 2.4999999999999996 35.0 60.0
    vertex 3.7940952255126037 34.829629131445344 60.0
  endloop
endfacet
facet normal 0.38268343236509317 0.9238795325112854 0.0
  outer loop
    vertex 3.7940952255126037 34.829629131445344 60.0
    vertex 4.999999999999999 34.33012701892219 0.0
    vertex 3.7940952255126037 34.829629131445344 0.0
  endloop
endfacet
facet normal 0.38268343236509317 0.9238795325112854 0.0
  outer loop
    vertex 4.999999999999999 34.33012701892219 0.0
    vertex 3.7940952255126037 34.829629131445344 60.0
    vertex 4.999999999999999 34.33012701892219 60.0
  endloop
endfacet
facet normal -0.13052619222005146 -0.9914448613738105 -0.0
  outer loop
    vertex 2.4999999999999982 25.000000000000004 60.0
    vertex 1.2059047744873914 25.17037086855466 0.0
    vertex 2.4999999999999982 25.000000000000004 0.0
  endloop
endfacet
facet normal -0.13052619222005146 -0.9914448613738105 -0.0
  outer loop
    vertex 1.2059047744873914 25.17037086855466 0.0
    vertex 2.4999999999999982 25.000000000000004 60.0
    vertex 1.2059047744873914 25.17037086855466 60.0
  endloop
endfacet
facet normal 0.13052617744665254 -0.9914448633187651 0.0
  outer loop
    vertex 58.794095153546884 25.170370849271464 60.0
    vertex 57.499999925495615 24.99999999999996 0.0
    vertex 58.794095153546884 25.170370849271464 0.0
  endloop
endfacet
facet normal 0.13052617744665254 -0.9914448633187651 0.0
  outer loop
    vertex 57.499999925495615 24.99999999999996 0.0
    vertex 58.794095153546884 25.170370849271464 60.0
    vertex 57.499999925495615 24.99999999999996 60.0
  endloop
endfacet
facet normal -0.9238795268089672 0.3826834461317068 0.0
  outer loop
    vertex 53.16987301833 32.50000006452266 60.0
    vertex 52.67037088783781 31.294095297478282 0.0
    vertex 52.67037088783781 31.294095297478282 60.0
  endloop
endfacet
facet normal -0.9238795268089672 0.3826834461317068 0.0
  outer loop
    vertex 52.67037088783781 31.294095297478282 0.0
    vertex 53.16987301833 32.50000006452266 60.0
    vertex 53.16987301833 32.50000006452266 0.0
  endloop
endfacet
facet normal -0.9914448633187648 -0.13052617744665626 -0.0
  outer loop
    vertex 52.500000000000014 30.00000007450435 60.0
    vertex 52.67037084927153 28.705904846453073 0.0
    vertex 52.67037084927153 28.705904846453073 60.0
  endloop
endfacet
facet normal -0.9914448633187648 -0.13052617744665626 -0.0
  outer loop
    vertex 52.67037084927153 28.705904846453073 0.0
    vertex 52.500000000000014 30.00000007450435 60.0
    vertex 52.500000000000014 30.00000007450435 0.0
  endloop
endfacet
facet normal -0.793353331220153 0.608761440830385 0.0
  outer loop
    vertex 53.96446614674983 33.53553395861526 60.0
    vertex 53.16987301833 32.50000006452266 0.0
    vertex 53.16987301833 32.50000006452266 60.0
  endloop
endfacet
facet normal -0.793353331220153 0.608761440830385 0.0
  outer loop
    vertex 53.16987301833 32.50000006452266 0.0
    vertex 53.96446614674983 33.53553395861526 60.0
    vertex 53.96446614674983 33.53553395861526 0.0
  endloop
endfacet
facet normal -0.3826834185984773 0.9238795382136044 0.0
  outer loop
    vertex 55.000000064522716 34.33012705617435 60.0
    vertex 56.20590484645313 34.829629150728465 0.0
    vertex 55.000000064522716 34.33012705617435 0.0
  endloop
endfacet
facet normal -0.3826834185984773 0.9238795382136044 0.0
  outer loop
    vertex 56.20590484645313 34.829629150728465 0.0
    vertex 55.000000064522716 34.33012705617435 60.0
    vertex 56.20590484645313 34.829629150728465 60.0
  endloop
endfacet
facet normal -0.1305261774466483 0.9914448633187657 0.0
  outer loop
    vertex 56.20590484645313 34.829629150728465 60.0
    vertex 57.5000000745044 34.99999999999996 0.0
    vertex 56.20590484645313 34.829629150728465 0.0
  endloop
endfacet
facet normal -0.1305261774466483 0.9914448633187657 0.0
  outer loop
    vertex 57.5000000745044 34.99999999999996 0.0
    vertex 56.20590484645313 34.829629150728465 60.0
    vertex 57.5000000745044 34.99999999999996 60.0
  endloop
endfacet
facet normal 0.13052620699345113 0.9914448594288554 0.0
  outer loop
    vertex 57.5000000745044 34.99999999999996 60.0
    vertex 58.794095297478336 34.829629112162145 0.0
    vertex 57.5000000745044 34.99999999999996 0.0
  endloop
endfacet
facet normal 0.13052620699345113 0.9914448594288554 0.0
  outer loop
    vertex 58.794095297478336 34.829629112162145 0.0
    vertex 57.5000000745044 34.99999999999996 60.0
    vertex 58.794095297478336 34.829629112162145 60.0
  endloop
endfacet
facet normal 0.9238795325112866 -0.3826834323650902 0.0
  outer loop
    vertex 7.329629131445339 28.705904774487394 0.0
    vertex 6.830127018922191 27.5 60.0
    vertex 6.830127018922191 27.5 0.0
  endloop
endfacet
facet normal 0.9238795325112866 -0.3826834323650902 0.0
  outer loop
    vertex 6.830127018922191 27.5 60.0
    vertex 7.329629131445339 28.705904774487394 0.0
    vertex 7.329629131445339 28.705904774487394 60.0
  endloop
endfacet
facet normal -0.7933533493623174 -0.6087614171870562 -0.0
  outer loop
    vertex 53.16987294382563 27.500000064522656 60.0
    vertex 53.96446604138472 26.464466146749785 0.0
    vertex 53.96446604138472 26.464466146749785 60.0
  endloop
endfacet
facet normal -0.7933533493623174 -0.6087614171870562 -0.0
  outer loop
    vertex 53.96446604138472 26.464466146749785 0.0
    vertex 53.16987294382563 27.500000064522656 60.0
    vertex 53.16987294382563 27.500000064522656 0.0
  endloop
endfacet
facet normal 0.9238795325112873 0.3826834323650887 0.0
  outer loop
    vertex 6.830127018922193 32.5 0.0
    vertex 7.329629131445341 31.294095225512603 60.0
    vertex 7.329629131445341 31.294095225512603 0.0
  endloop
endfacet
facet normal 0.9238795325112873 0.3826834323650887 0.0
  outer loop
    vertex 7.329629131445341 31.294095225512603 60.0
    vertex 6.830127018922193 32.5 0.0
    vertex 6.830127018922193 32.5 60.0
  endloop
endfacet
facet normal -0.6087614171870568 0.7933533493623167 0.0
  outer loop
    vertex 53.96446614674983 33.53553395861526 60.0
    vertex 55.000000064522716 34.33012705617435 0.0
    vertex 53.96446614674983 33.53553395861526 0.0
  endloop
endfacet
facet normal -0.6087614171870568 0.7933533493623167 0.0
  outer loop
    vertex 55.000000064522716 34.33012705617435 0.0
    vertex 53.96446614674983 33.53553395861526 60.0
    vertex 55.000000064522716 34.33012705617435 60.0
  endloop
endfacet
facet normal 0.38268344613169836 0.9238795268089708 0.0
  outer loop
    vertex 58.794095297478336 34.829629112162145 60.0
    vertex 59.00000007069485 34.74434055894393 0.0
    vertex 58.794095297478336 34.829629112162145 0.0
  endloop
endfacet
facet normal 0.38268344613169836 0.9238795268089708 0.0
  outer loop
    vertex 59.00000007069485 34.74434055894393 0.0
    vertex 58.794095297478336 34.829629112162145 60.0
    vertex 59.00000007069485 34.74434055894393 60.0
  endloop
endfacet
facet normal 0.1305261922200497 -0.9914448613738107 0.0
  outer loop
    vertex 3.7940952255126006 25.17037086855466 60.0
    vertex 2.4999999999999982 25.000000000000004 0.0
    vertex 3.7940952255126006 25.17037086855466 0.0
  endloop
endfacet
facet normal 0.1305261922200497 -0.9914448613738107 0.0
  outer loop
    vertex 2.4999999999999982 25.000000000000004 0.0
    vertex 3.7940952255126006 25.17037086855466 60.0
    vertex 2.4999999999999982 25.000000000000004 60.0
  endloop
endfacet
facet normal 0.6087614290087195 -0.7933533402912359 0.0
  outer loop
    vertex 6.035533905932736 26.464466094067262 60.0
    vertex 4.9999999999999964 25.669872981077805 0.0
    vertex 6.035533905932736 26.464466094067262 0.0
  endloop
endfacet
facet normal 0.6087614290087195 -0.7933533402912359 0.0
  outer loop
    vertex 4.9999999999999964 25.669872981077805 0.0
    vertex 6.035533905932736 26.464466094067262 60.0
    vertex 4.9999999999999964 25.669872981077805 60.0
  endloop
endfacet
facet normal -0.13052620699345113 -0.9914448594288554 -0.0
  outer loop
    vertex 57.499999925495615 24.99999999999996 60.0
    vertex 56.20590470252168 25.170370887837777 0.0
    vertex 57.499999925495615 24.99999999999996 0.0
  endloop
endfacet
facet normal -0.13052620699345113 -0.9914448594288554 -0.0
  outer loop
    vertex 56.20590470252168 25.170370887837777 0.0
    vertex 57.499999925495615 24.99999999999996 60.0
    vertex 56.20590470252168 25.170370887837777 60.0
  endloop
endfacet
facet normal 0.9914448613738104 0.13052619222005188 0.0
  outer loop
    vertex 7.329629131445341 31.294095225512603 0.0
    vertex 7.499999999999999 30.0 60.0
    vertex 7.499999999999999 30.0 0.0
  endloop
endfacet
facet normal 0.9914448613738104 0.13052619222005188 0.0
  outer loop
    vertex 7.499999999999999 30.0 60.0
    vertex 7.329629131445341 31.294095225512603 0.0
    vertex 7.329629131445341 31.294095225512603 60.0
  endloop
endfacet
facet normal -0.9238795382136064 -0.38268341859847205 -0.0
  outer loop
    vertex 52.67037084927153 28.705904846453073 60.0
    vertex 53.16987294382563 27.500000064522656 0.0
    vertex 53.16987294382563 27.500000064522656 60.0
  endloop
endfacet
facet normal -0.9238795382136064 -0.38268341859847205 -0.0
  outer loop
    vertex 53.16987294382563 27.500000064522656 0.0
    vertex 52.67037084927153 28.705904846453073 60.0
    vertex 52.67037084927153 28.705904846453073 0.0
  endloop
endfacet
facet normal -0.9914448594288559 0.13052620699344689 0.0
  outer loop
    vertex 52.67037088783781 31.294095297478282 60.0
    vertex 52.500000000000014 30.00000007450435 0.0
    vertex 52.500000000000014 30.00000007450435 60.0
  endloop
endfacet
facet normal -0.9914448594288559 0.13052620699344689 0.0
  outer loop
    vertex 52.500000000000014 30.00000007450435 0.0
    vertex 52.67037088783781 31.294095297478282 60.0
    vertex 52.67037088783781 31.294095297478282 0.0
  endloop
endfacet
facet normal 0.3826834323650896 -0.9238795325112867 0.0
  outer loop
    vertex 4.9999999999999964 25.669872981077805 60.0
    vertex 3.7940952255126006 25.17037086855466 0.0
    vertex 4.9999999999999964 25.669872981077805 0.0
  endloop
endfacet
facet normal 0.3826834323650896 -0.9238795325112867 0.0
  outer loop
    vertex 3.7940952255126006 25.17037086855466 0.0
    vertex 4.9999999999999964 25.669872981077805 60.0
    vertex 3.7940952255126006 25.17037086855466 60.0
  endloop
endfacet
facet normal 1.0 2.906503626503435e-17 0.0
  outer loop
    vertex 0.9999999999999989 25.255659418704717 0.0
    vertex 0.9999999999999996 6.0 60.0
    vertex 0.9999999999999996 6.0 0.0
  endloop
endfacet
facet normal 1.0 2.906503626503435e-17 0.0
  outer loop
    vertex 0.9999999999999996 6.0 60.0
    vertex 0.9999999999999989 25.255659418704717 0.0
    vertex 0.9999999999999989 25.255659418704717 60.0
  endloop
endfacet
facet normal 0.382683418598472 -0.9238795382136065 0.0
  outer loop
    vertex 58.99999992930516 25.25565939635336 60.0
    vertex 58.794095153546884 25.170370849271464 0.0
    vertex 58.99999992930516 25.25565939635336 0.0
  endloop
endfacet
facet normal 0.382683418598472 -0.9238795382136065 0.0
  outer loop
    vertex 58.794095153546884 25.170370849271464 0.0
    vertex 58.99999992930516 25.25565939635336 60.0
    vertex 58.794095153546884 25.170370849271464 60.0
  endloop
endfacet
facet normal 0.7933533402912357 -0.6087614290087199 0.0
  outer loop
    vertex 6.830127018922191 27.5 0.0
    vertex 6.035533905932736 26.464466094067262 60.0
    vertex 6.035533905932736 26.464466094067262 0.0
  endloop
endfacet
facet normal 0.7933533402912357 -0.6087614290087199 0.0
  outer loop
    vertex 6.035533905932736 26.464466094067262 60.0
    vertex 6.830127018922191 27.5 0.0
    vertex 6.830127018922191 27.5 60.0
  endloop
endfacet
facet normal -1.0 -2.9145706881346165e-09 -0.0
  outer loop
    vertex 58.99999992930516 25.25565939635336 60.0
    vertex 59.00000000000001 6.0 0.0
    vertex 59.00000000000001 6.0 60.0
  endloop
endfacet
facet normal -1.0 -2.9145706881346165e-09 -0.0
  outer loop
    vertex 59.00000000000001 6.0 0.0
    vertex 58.99999992930516 25.25565939635336 60.0
    vertex 58.99999992930516 25.25565939635336 0.0
  endloop
endfacet
facet normal -0.6087614408303754 -0.7933533312201604 -0.0
  outer loop
    vertex 54.99999993547733 25.66987301832997 60.0
    vertex 53.96446604138472 26.464466146749785 0.0
    vertex 54.99999993547733 25.66987301832997 0.0
  endloop
endfacet
facet normal -0.6087614408303754 -0.7933533312201604 -0.0
  outer loop
    vertex 53.96446604138472 26.464466146749785 0.0
    vertex 54.99999993547733 25.66987301832997 60.0
    vertex 53.96446604138472 26.464466146749785 60.0
  endloop
endfacet
facet normal 0.9914448613738103 -0.13052619222005235 0.0
  outer loop
    vertex 7.499999999999999 30.0 0.0
    vertex 7.329629131445339 28.705904774487394 60.0
    vertex 7.329629131445339 28.705904774487394 0.0
  endloop
endfacet
facet normal 0.9914448613738103 -0.13052619222005235 0.0
  outer loop
    vertex 7.329629131445339 28.705904774487394 60.0
    vertex 7.499999999999999 30.0 0.0
    vertex 7.499999999999999 30.0 60.0
  endloop
endfacet
facet normal 0.0 1.0 0.0
  outer loop
    vertex 0.9999999999999996 6.0 60.0
    vertex 59.00000000000001 6.0 0.0
    vertex 0.9999999999999996 6.0 0.0
  endloop
endfacet
facet normal 0.0 1.0 0.0
  outer loop
    vertex 59.00000000000001 6.0 0.0
    vertex 0.9999999999999996 6.0 60.0
    vertex 59.00000000000001 6.0 60.0
  endloop
endfacet
facet normal -0.3826834461317135 -0.9238795268089643 -0.0
  outer loop
    vertex 56.20590470252168 25.170370887837777 60.0
    vertex 54.99999993547733 25.66987301832997 0.0
    vertex 56.20590470252168 25.170370887837777 0.0
  endloop
endfacet
facet normal -0.3826834461317135 -0.9238795268089643 -0.0
  outer loop
    vertex 54.99999993547733 25.66987301832997 0.0
    vertex 56.20590470252168 25.170370887837777 60.0
    vertex 54.99999993547733 25.66987301832997 60.0
  endloop
endfacet
facet normal -0.3826834323650943 -0.9238795325112851 -0.0
  outer loop
    vertex 1.2059047744873914 25.17037086855466 60.0
    vertex 0.9999999999999989 25.255659418704717 0.0
    vertex 1.2059047744873914 25.17037086855466 0.0
  endloop
endfacet
facet normal -0.3826834323650943 -0.9238795325112851 -0.0
  outer loop
    vertex 0.9999999999999989 25.255659418704717 0.0
    vertex 1.2059047744873914 25.17037086855466 60.0
    vertex 0.9999999999999989 25.255659418704717 60.0
  endloop
endfacet
facet normal 0.0 0.0 -1.0
  outer loop
    vertex 52.67037088783781 31.294095297478282 0.0
    vertex 52.67037084927153 28.705904846453073 0.0
    vertex 52.500000000000014 30.00000007450435 0.0
  endloop
endfacet
facet normal 0.0 0.0 -1.0
  outer loop
    vertex 52.67037084927153 28.705904846453073 0.0
    vertex 52.67037088783781 31.294095297478282 0.0
    vertex 53.16987294382563 27.500000064522656 0.0
  endloop
endfacet
facet normal 0.0 0.0 -1.0
  outer loop
    vertex 53.16987294382563 27.500000064522656 0.0
    vertex 52.67037088783781 31.294095297478282 0.0
    vertex 53.16987301833 32.50000006452266 0.0
  endloop
endfacet
facet normal 0.0 0.0 -1.0
  outer loop
    vertex 53.16987294382563 27.500000064522656 0.0
    vertex 53.16987301833 32.50000006452266 0.0
    vertex 53.96446604138472 26.464466146749785 0.0
  endloop
endfacet
facet normal 0.0 0.0 -1.0
  outer loop
    vertex 53.96446604138472 26.464466146749785 0.0
    vertex 53.16987301833 32.50000006452266 0.0
    vertex 53.96446614674983 33.53553395861526 0.0
  endloop
endfacet
facet normal 0.0 0.0 -1.0
  outer loop
    vertex 53.96446604138472 26.464466146749785 0.0
    vertex 53.96446614674983 33.53553395861526 0.0
    vertex 54.99999993547733 25.66987301832997 0.0
  endloop
endfacet
facet normal 0.0 0.0 -1.0
  outer loop
    vertex 54.99999993547733 25.66987301832997 0.0
    vertex 53.96446614674983 33.53553395861526 0.0
    vertex 55.000000064522716 34.33012705617435 0.0
  endloop
endfacet
facet normal 0.0 0.0 -1.0
  outer loop
    vertex 54.99999993547733 25.66987301832997 0.0
    vertex 55.000000064522716 34.33012705617435 0.0
    vertex 56.20590470252168 25.170370887837777 0.0
  endloop
endfacet
facet normal 0.0 0.0 -1.0
  outer loop
    vertex 56.20590470252168 25.170370887837777 0.0
    vertex 55.000000064522716 34.33012705617435 0.0
    vertex 55.80000000000001 30.000000025331456 0.0
  endloop
endfacet
facet normal 0.0 0.0 -1.0
  outer loop
    vertex 56.20590470252168 25.170370887837777 0.0
    vertex 55.80000000000001 30.000000025331456 0.0
    vertex 55.85792608875232 29.56000764779402 0.0
  endloop
endfacet
facet normal 0.0 0.0 -1.0
  outer loop
    vertex 56.20590470252168 25.170370887837777 0.0
    vertex 55.85792608875232 29.56000764779402 0.0
    vertex 56.02775680090071 29.15000002193768 0.0
  endloop
endfacet
facet normal 0.0 0.0 -1.0
  outer loop
    vertex 56.20590470252168 25.170370887837777 0.0
    vertex 56.02775680090071 29.15000002193768 0.0
    vertex 56.2979184540708 28.7979184898949 0.0
  endloop
endfacet
facet normal 0.0 0.0 -1.0
  outer loop
    vertex 56.20590470252168 25.170370887837777 0.0
    vertex 56.2979184540708 28.7979184898949 0.0
    vertex 57.499999925495615 24.99999999999996 0.0
  endloop
endfacet
facet normal 0.0 0.0 -1.0
  outer loop
    vertex 57.499999925495615 24.99999999999996 0.0
    vertex 56.2979184540708 28.7979184898949 0.0
    vertex 56.64999997806228 28.52775682623216 0.0
  endloop
endfacet
facet normal 0.0 0.0 -1.0
  outer loop
    vertex 57.499999925495615 24.99999999999996 0.0
    vertex 56.64999997806228 28.52775682623216 0.0
    vertex 57.06000759885737 28.35792610186482 0.0
  endloop
endfacet
facet normal 0.0 0.0 -1.0
  outer loop
    vertex 57.499999925495615 24.99999999999996 0.0
    vertex 57.06000759885737 28.35792610186482 0.0
    vertex 57.49999997466852 28.299999999999958 0.0
  endloop
endfacet
facet normal 0.0 0.0 -1.0
  outer loop
    vertex 57.499999925495615 24.99999999999996 0.0
    vertex 57.49999997466852 28.299999999999958 0.0
    vertex 58.794095153546884 25.170370849271464 0.0
  endloop
endfacet
facet normal 0.0 0.0 -1.0
  outer loop
    vertex 58.794095153546884 25.170370849271464 0.0
    vertex 57.49999997466852 28.299999999999958 0.0
    vertex 57.93999235220594 28.35792608875227 0.0
  endloop
endfacet
facet normal 0.0 0.0 -1.0
  outer loop
    vertex 58.794095153546884 25.170370849271464 0.0
    vertex 57.93999235220594 28.35792608875227 0.0
    vertex 58.34999997806228 28.527756800900672 0.0
  endloop
endfacet
facet normal 0.0 0.0 -1.0
  outer loop
    vertex 58.794095153546884 25.170370849271464 0.0
    vertex 58.34999997806228 28.527756800900672 0.0
    vertex 58.461535486502605 28.61334100400435 0.0
  endloop
endfacet
facet normal 0.0 0.0 -1.0
  outer loop
    vertex 58.794095153546884 25.170370849271464 0.0
    vertex 58.461535486502605 28.61334100400435 0.0
    vertex 58.70208151010506 28.797918454070757 0.0
  endloop
endfacet
facet normal 0.0 0.0 -1.0
  outer loop
    vertex 58.794095153546884 25.170370849271464 0.0
    vertex 58.70208151010506 28.797918454070757 0.0
    vertex 58.972243173767815 29.149999978062247 0.0
  endloop
endfacet
facet normal 0.0 0.0 -1.0
  outer loop
    vertex 58.794095153546884 25.170370849271464 0.0
    vertex 58.972243173767815 29.149999978062247 0.0
    vertex 58.99999992930516 25.25565939635336 0.0
  endloop
endfacet
facet normal 0.0 0.0 -1.0
  outer loop
    vertex 58.99999992930516 25.25565939635336 0.0
    vertex 58.972243173767815 29.149999978062247 0.0
    vertex 58.99999998833279 29.21701085340904 0.0
  endloop
endfacet
facet normal 0.0 0.0 -1.0
  outer loop
    vertex 58.99999992930516 25.25565939635336 0.0
    vertex 58.99999998833279 29.21701085340904 0.0
    vertex 59.00000000000001 6.0 0.0
  endloop
endfacet
facet normal 0.0 0.0 -1.0
  outer loop
    vertex 59.00000000000001 6.0 0.0
    vertex 58.99999998833279 29.21701085340904 0.0
    vertex 59.142073898135145 29.560007598857336 0.0
  endloop
endfacet
facet normal 0.0 0.0 -1.0
  outer loop
    vertex 60.0 51.99999999999999 0.0
    vertex 59.00000007069485 34.74434055894393 0.0
    vertex 59.00000000000001 51.99999999999999 0.0
  endloop
endfacet
facet normal 0.0 0.0 -1.0
  outer loop
    vertex 59.00000007069485 34.74434055894393 0.0
    vertex 60.0 51.99999999999999 0.0
    vertex 59.14207391124769 30.439992352205905 0.0
  endloop
endfacet
facet normal 0.0 0.0 -1.0
  outer loop
    vertex 59.14207391124769 30.439992352205905 0.0
    vertex 60.0 51.99999999999999 0.0
    vertex 59.2 29.99999997466847 0.0
  endloop
endfacet
facet normal 0.0 0.0 -1.0
  outer loop
    vertex -3.0 60.0 0.0
    vertex 0.0 54.000000000000014 0.0
    vertex -3.0 1.9999999999999998 0.0
  endloop
endfacet
facet normal 0.0 0.0 -1.0
  outer loop
    vertex 0.0 54.000000000000014 0.0
    vertex -3.0 60.0 0.0
    vertex 0.9999999999999996 56.00000000000006 0.0
  endloop
endfacet
facet normal 0.0 0.0 -1.0
  outer loop
    vertex 0.9999999999999996 56.00000000000006 0.0
    vertex -3.0 60.0 0.0
    vertex 63.0 60.0 0.0
  endloop
endfacet
facet normal 0.0 0.0 -1.0
  outer loop
    vertex 0.9999999999999996 56.00000000000006 0.0
    vertex 63.0 60.0 0.0
    vertex 59.00000000000001 56.00000000000006 0.0
  endloop
endfacet
facet normal 0.0 0.0 -1.0
  outer loop
    vertex 59.00000000000001 56.00000000000006 0.0
    vertex 63.0 60.0 0.0
    vertex 59.00000000000001 54.000000000000014 0.0
  endloop
endfacet
facet normal 0.0 0.0 -1.0
  outer loop
    vertex 59.00000000000001 54.000000000000014 0.0
    vertex 63.0 60.0 0.0
    vertex 60.0 54.000000000000014 0.0
  endloop
endfacet
facet normal 0.0 0.0 -1.0
  outer loop
    vertex 60.0 54.000000000000014 0.0
    vertex 63.0 60.0 0.0
    vertex 60.0 51.99999999999999 0.0
  endloop
endfacet
facet normal 0.0 0.0 -1.0
  outer loop
    vertex -3.0 1.9999999999999998 0.0
    vertex 0.9999999999999996 6.0 0.0
    vertex 63.0 1.9999999999999998 0.0
  endloop
endfacet
facet normal 0.0 0.0 -1.0
  outer loop
    vertex 0.9999999999999996 6.0 0.0
    vertex -3.0 1.9999999999999998 0.0
    vertex 0.0 51.99999999999999 0.0
  endloop
endfacet
facet normal 0.0 0.0 -1.0
  outer loop
    vertex 0.0 51.99999999999999 0.0
    vertex -3.0 1.9999999999999998 0.0
    vertex 0.0 54.000000000000014 0.0
  endloop
endfacet
facet normal 0.0 0.0 -1.0
  outer loop
    vertex 0.9999999999999996 6.0 0.0
    vertex 0.0 51.99999999999999 0.0
    vertex 0.7999999999999993 30.0 0.0
  endloop
endfacet
facet normal 0.0 0.0 -1.0
  outer loop
    vertex 0.9999999999999996 6.0 0.0
    vertex 0.7999999999999993 30.0 0.0
    vertex 0.8579260953085831 29.560007623325717 0.0
  endloop
endfacet
facet normal 0.0 0.0 -1.0
  outer loop
    vertex 0.9999999999999996 6.0 0.0
    vertex 0.8579260953085831 29.560007623325717 0.0
    vertex 0.9999999999999989 25.255659418704717 0.0
  endloop
endfacet
facet normal 0.0 0.0 -1.0
  outer loop
    vertex 0.9999999999999989 25.255659418704717 0.0
    vertex 0.8579260953085831 29.560007623325717 0.0
    vertex 0.9999999999999989 29.217010875760398 0.0
  endloop
endfacet
facet normal 0.0 0.0 -1.0
  outer loop
    vertex 63.0 1.9999999999999998 0.0
    vertex 0.9999999999999996 6.0 0.0
    vertex 59.00000000000001 6.0 0.0
  endloop
endfacet
facet normal 0.0 0.0 -1.0
  outer loop
    vertex 63.0 1.9999999999999998 0.0
    vertex 59.00000000000001 6.0 0.0
    vertex 59.142073898135145 29.560007598857336 0.0
  endloop
endfacet
facet normal 0.0 0.0 -1.0
  outer loop
    vertex 63.0 1.9999999999999998 0.0
    vertex 59.142073898135145 29.560007598857336 0.0
    vertex 59.2 29.99999997466847 0.0
  endloop
endfacet
facet normal 0.0 0.0 -1.0
  outer loop
    vertex 63.0 1.9999999999999998 0.0
    vertex 59.2 29.99999997466847 0.0
    vertex 60.0 51.99999999999999 0.0
  endloop
endfacet
facet normal 0.0 0.0 -1.0
  outer loop
    vertex 63.0 1.9999999999999998 0.0
    vertex 60.0 51.99999999999999 0.0
    vertex 63.0 60.0 0.0
  endloop
endfacet
facet normal 0.0 0.0 -1.0
  outer loop
    vertex 56.20590484645313 34.829629150728465 0.0
    vertex 55.80000000000001 30.000000025331456 0.0
    vertex 55.000000064522716 34.33012705617435 0.0
  endloop
endfacet
facet normal 0.0 0.0 -1.0
  outer loop
    vertex 55.80000000000001 30.000000025331456 0.0
    vertex 56.20590484645313 34.829629150728465 0.0
    vertex 55.85792610186487 30.43999240114259 0.0
  endloop
endfacet
facet normal 0.0 0.0 -1.0
  outer loop
    vertex 55.85792610186487 30.43999240114259 0.0
    vertex 56.20590484645313 34.829629150728465 0.0
    vertex 56.02775682623222 30.850000021937674 0.0
  endloop
endfacet
facet normal 0.0 0.0 -1.0
  outer loop
    vertex 56.02775682623222 30.850000021937674 0.0
    vertex 56.20590484645313 34.829629150728465 0.0
    vertex 56.29791848989496 31.202081545929165 0.0
  endloop
endfacet
facet normal 0.0 0.0 -1.0
  outer loop
    vertex 56.29791848989496 31.202081545929165 0.0
    vertex 56.20590484645313 34.829629150728465 0.0
    vertex 57.5000000745044 34.99999999999996 0.0
  endloop
endfacet
facet normal 0.0 0.0 -1.0
  outer loop
    vertex 56.29791848989496 31.202081545929165 0.0
    vertex 57.5000000745044 34.99999999999996 0.0
    vertex 56.650000021937736 31.472243199099253 0.0
  endloop
endfacet
facet normal 0.0 0.0 -1.0
  outer loop
    vertex 56.650000021937736 31.472243199099253 0.0
    vertex 57.5000000745044 34.99999999999996 0.0
    vertex 57.06000764779407 31.64207391124765 0.0
  endloop
endfacet
facet normal 0.0 0.0 -1.0
  outer loop
    vertex 57.06000764779407 31.64207391124765 0.0
    vertex 57.5000000745044 34.99999999999996 0.0
    vertex 57.500000025331495 31.699999999999964 0.0
  endloop
endfacet
facet normal 0.0 0.0 -1.0
  outer loop
    vertex 57.500000025331495 31.699999999999964 0.0
    vertex 57.5000000745044 34.99999999999996 0.0
    vertex 57.939992401142646 31.642073898135106 0.0
  endloop
endfacet
facet normal 0.0 0.0 -1.0
  outer loop
    vertex 57.939992401142646 31.642073898135106 0.0
    vertex 57.5000000745044 34.99999999999996 0.0
    vertex 58.794095297478336 34.829629112162145 0.0
  endloop
endfacet
facet normal 0.0 0.0 -1.0
  outer loop
    vertex 57.939992401142646 31.642073898135106 0.0
    vertex 58.794095297478336 34.829629112162145 0.0
    vertex 58.35000002193773 31.472243173767765 0.0
  endloop
endfacet
facet normal 0.0 0.0 -1.0
  outer loop
    vertex 58.35000002193773 31.472243173767765 0.0
    vertex 58.794095297478336 34.829629112162145 0.0
    vertex 58.4615355278275 31.386658967340125 0.0
  endloop
endfacet
facet normal 0.0 0.0 -1.0
  outer loop
    vertex 58.4615355278275 31.386658967340125 0.0
    vertex 58.794095297478336 34.829629112162145 0.0
    vertex 58.70208154592921 31.20208151010502 0.0
  endloop
endfacet
facet normal 0.0 0.0 -1.0
  outer loop
    vertex 58.70208154592921 31.20208151010502 0.0
    vertex 58.794095297478336 34.829629112162145 0.0
    vertex 58.9722431990993 30.849999978062247 0.0
  endloop
endfacet
facet normal 0.0 0.0 -1.0
  outer loop
    vertex 58.9722431990993 30.849999978062247 0.0
    vertex 58.794095297478336 34.829629112162145 0.0
    vertex 59.00000007069485 34.74434055894393 0.0
  endloop
endfacet
facet normal 0.0 0.0 -1.0
  outer loop
    vertex 58.9722431990993 30.849999978062247 0.0
    vertex 59.00000007069485 34.74434055894393 0.0
    vertex 59.00000001166722 30.782989101888248 0.0
  endloop
endfacet
facet normal 0.0 0.0 -1.0
  outer loop
    vertex 59.00000001166722 30.782989101888248 0.0
    vertex 59.00000007069485 34.74434055894393 0.0
    vertex 59.14207391124769 30.439992352205905 0.0
  endloop
endfacet
facet normal 0.0 0.0 -1.0
  outer loop
    vertex 0.9999999999999996 54.000000000000014 0.0
    vertex 0.0 54.000000000000014 0.0
    vertex 0.9999999999999996 56.00000000000006 0.0
  endloop
endfacet
facet normal 0.0 0.0 -1.0
  outer loop
    vertex 0.9999999999999996 51.99999999999999 0.0
    vertex 0.7999999999999993 30.0 0.0
    vertex 0.0 51.99999999999999 0.0
  endloop
endfacet
facet normal 0.0 0.0 -1.0
  outer loop
    vertex 0.7999999999999993 30.0 0.0
    vertex 0.9999999999999996 51.99999999999999 0.0
    vertex 0.8579260953085831 30.439992376674287 0.0
  endloop
endfacet
facet normal 0.0 0.0 -1.0
  outer loop
    vertex 0.8579260953085831 30.439992376674287 0.0
    vertex 0.9999999999999996 51.99999999999999 0.0
    vertex 0.9999999999999989 30.782989124239606 0.0
  endloop
endfacet
facet normal 0.0 0.0 -1.0
  outer loop
    vertex 0.9999999999999989 30.782989124239606 0.0
    vertex 0.9999999999999996 51.99999999999999 0.0
    vertex 0.9999999999999996 34.74434058129529 0.0
  endloop
endfacet
facet normal 0.0 0.0 -1.0
  outer loop
    vertex 0.9999999999999989 30.782989124239606 0.0
    vertex 0.9999999999999996 34.74434058129529 0.0
    vertex 1.0277568135664539 30.85 0.0
  endloop
endfacet
facet normal 0.0 0.0 -1.0
  outer loop
    vertex 1.0277568135664539 30.85 0.0
    vertex 0.9999999999999996 34.74434058129529 0.0
    vertex 1.2059047744873956 34.829629131445344 0.0
  endloop
endfacet
facet normal 0.0 0.0 -1.0
  outer loop
    vertex 1.0277568135664539 30.85 0.0
    vertex 1.2059047744873956 34.829629131445344 0.0
    vertex 1.2979184719828685 31.202081528017136 0.0
  endloop
endfacet
facet normal 0.0 0.0 -1.0
  outer loop
    vertex 1.2979184719828685 31.202081528017136 0.0
    vertex 1.2059047744873956 34.829629131445344 0.0
    vertex 2.4999999999999996 35.0 0.0
  endloop
endfacet
facet normal 0.0 0.0 -1.0
  outer loop
    vertex 1.2979184719828685 31.202081528017136 0.0
    vertex 2.4999999999999996 35.0 0.0
    vertex 1.5384644928349567 31.38665898166789 0.0
  endloop
endfacet
facet normal 0.0 0.0 -1.0
  outer loop
    vertex 1.5384644928349567 31.38665898166789 0.0
    vertex 2.4999999999999996 35.0 0.0
    vertex 1.6499999999999997 31.47224318643355 0.0
  endloop
endfacet
facet normal 0.0 0.0 -1.0
  outer loop
    vertex 1.6499999999999997 31.47224318643355 0.0
    vertex 2.4999999999999996 35.0 0.0
    vertex 2.0600076233257143 31.64207390469142 0.0
  endloop
endfacet
facet normal 0.0 0.0 -1.0
  outer loop
    vertex 2.0600076233257143 31.64207390469142 0.0
    vertex 2.4999999999999996 35.0 0.0
    vertex 2.4999999999999996 31.700000000000003 0.0
  endloop
endfacet
facet normal 0.0 0.0 -1.0
  outer loop
    vertex 2.4999999999999996 31.700000000000003 0.0
    vertex 2.4999999999999996 35.0 0.0
    vertex 3.7940952255126037 34.829629131445344 0.0
  endloop
endfacet
facet normal 0.0 0.0 -1.0
  outer loop
    vertex 2.4999999999999996 31.700000000000003 0.0
    vertex 3.7940952255126037 34.829629131445344 0.0
    vertex 2.939992376674285 31.64207390469142 0.0
  endloop
endfacet
facet normal 0.0 0.0 -1.0
  outer loop
    vertex 2.939992376674285 31.64207390469142 0.0
    vertex 3.7940952255126037 34.829629131445344 0.0
    vertex 3.3499999999999996 31.47224318643355 0.0
  endloop
endfacet
facet normal 0.0 0.0 -1.0
  outer loop
    vertex 3.3499999999999996 31.47224318643355 0.0
    vertex 3.7940952255126037 34.829629131445344 0.0
    vertex 3.702081528017131 31.202081528017136 0.0
  endloop
endfacet
facet normal 0.0 0.0 -1.0
  outer loop
    vertex 3.702081528017131 31.202081528017136 0.0
    vertex 3.7940952255126037 34.829629131445344 0.0
    vertex 3.9722431864335452 30.85 0.0
  endloop
endfacet
facet normal 0.0 0.0 -1.0
  outer loop
    vertex 3.9722431864335452 30.85 0.0
    vertex 3.7940952255126037 34.829629131445344 0.0
    vertex 4.999999999999999 34.33012701892219 0.0
  endloop
endfacet
facet normal 0.0 0.0 -1.0
  outer loop
    vertex 3.9722431864335452 30.85 0.0
    vertex 4.999999999999999 34.33012701892219 0.0
    vertex 4.142073904691415 30.439992376674287 0.0
  endloop
endfacet
facet normal 0.0 0.0 -1.0
  outer loop
    vertex 4.142073904691415 30.439992376674287 0.0
    vertex 4.999999999999999 34.33012701892219 0.0
    vertex 4.1999999999999975 30.0 0.0
  endloop
endfacet
facet normal 0.0 0.0 -1.0
  outer loop
    vertex 4.1999999999999975 30.0 0.0
    vertex 4.999999999999999 34.33012701892219 0.0
    vertex 4.9999999999999964 25.669872981077805 0.0
  endloop
endfacet
facet normal 0.0 0.0 -1.0
  outer loop
    vertex 4.9999999999999964 25.669872981077805 0.0
    vertex 4.999999999999999 34.33012701892219 0.0
    vertex 6.035533905932736 26.464466094067262 0.0
  endloop
endfacet
facet normal 0.0 0.0 -1.0
  outer loop
    vertex 6.035533905932736 26.464466094067262 0.0
    vertex 4.999999999999999 34.33012701892219 0.0
    vertex 6.035533905932736 33.53553390593274 0.0
  endloop
endfacet
facet normal 0.0 0.0 -1.0
  outer loop
    vertex 6.035533905932736 26.464466094067262 0.0
    vertex 6.035533905932736 33.53553390593274 0.0
    vertex 6.830127018922193 32.5 0.0
  endloop
endfacet
facet normal 0.0 0.0 -1.0
  outer loop
    vertex 6.035533905932736 26.464466094067262 0.0
    vertex 6.830127018922193 32.5 0.0
    vertex 6.830127018922191 27.5 0.0
  endloop
endfacet
facet normal 0.0 0.0 -1.0
  outer loop
    vertex 6.830127018922191 27.5 0.0
    vertex 6.830127018922193 32.5 0.0
    vertex 7.329629131445339 28.705904774487394 0.0
  endloop
endfacet
facet normal 0.0 0.0 -1.0
  outer loop
    vertex 7.329629131445339 28.705904774487394 0.0
    vertex 6.830127018922193 32.5 0.0
    vertex 7.329629131445341 31.294095225512603 0.0
  endloop
endfacet
facet normal 0.0 0.0 -1.0
  outer loop
    vertex 7.329629131445339 28.705904774487394 0.0
    vertex 7.329629131445341 31.294095225512603 0.0
    vertex 7.499999999999999 30.0 0.0
  endloop
endfacet
facet normal 0.0 0.0 -1.0
  outer loop
    vertex 1.0277568135664532 29.150000000000002 0.0
    vertex 0.9999999999999989 25.255659418704717 0.0
    vertex 0.9999999999999989 29.217010875760398 0.0
  endloop
endfacet
facet normal 0.0 0.0 -1.0
  outer loop
    vertex 0.9999999999999989 25.255659418704717 0.0
    vertex 1.0277568135664532 29.150000000000002 0.0
    vertex 1.2059047744873914 25.17037086855466 0.0
  endloop
endfacet
facet normal 0.0 0.0 -1.0
  outer loop
    vertex 1.2059047744873914 25.17037086855466 0.0
    vertex 1.0277568135664532 29.150000000000002 0.0
    vertex 1.2979184719828685 28.797918471982868 0.0
  endloop
endfacet
facet normal 0.0 0.0 -1.0
  outer loop
    vertex 1.2059047744873914 25.17037086855466 0.0
    vertex 1.2979184719828685 28.797918471982868 0.0
    vertex 2.4999999999999982 25.000000000000004 0.0
  endloop
endfacet
facet normal 0.0 0.0 -1.0
  outer loop
    vertex 2.4999999999999982 25.000000000000004 0.0
    vertex 1.2979184719828685 28.797918471982868 0.0
    vertex 1.538464492834956 28.613341018332115 0.0
  endloop
endfacet
facet normal 0.0 0.0 -1.0
  outer loop
    vertex 2.4999999999999982 25.000000000000004 0.0
    vertex 1.538464492834956 28.613341018332115 0.0
    vertex 1.649999999999999 28.527756813566455 0.0
  endloop
endfacet
facet normal 0.0 0.0 -1.0
  outer loop
    vertex 2.4999999999999982 25.000000000000004 0.0
    vertex 1.649999999999999 28.527756813566455 0.0
    vertex 2.060007623325713 28.357926095308585 0.0
  endloop
endfacet
facet normal 0.0 0.0 -1.0
  outer loop
    vertex 2.4999999999999982 25.000000000000004 0.0
    vertex 2.060007623325713 28.357926095308585 0.0
    vertex 2.499999999999999 28.299999999999997 0.0
  endloop
endfacet
facet normal 0.0 0.0 -1.0
  outer loop
    vertex 2.4999999999999982 25.000000000000004 0.0
    vertex 2.499999999999999 28.299999999999997 0.0
    vertex 3.7940952255126006 25.17037086855466 0.0
  endloop
endfacet
facet normal 0.0 0.0 -1.0
  outer loop
    vertex 3.7940952255126006 25.17037086855466 0.0
    vertex 2.499999999999999 28.299999999999997 0.0
    vertex 2.9399923766742835 28.357926095308585 0.0
  endloop
endfacet
facet normal 0.0 0.0 -1.0
  outer loop
    vertex 3.7940952255126006 25.17037086855466 0.0
    vertex 2.9399923766742835 28.357926095308585 0.0
    vertex 3.3499999999999983 28.527756813566455 0.0
  endloop
endfacet
facet normal 0.0 0.0 -1.0
  outer loop
    vertex 3.7940952255126006 25.17037086855466 0.0
    vertex 3.3499999999999983 28.527756813566455 0.0
    vertex 3.7020815280171293 28.797918471982868 0.0
  endloop
endfacet
facet normal 0.0 0.0 -1.0
  outer loop
    vertex 3.7940952255126006 25.17037086855466 0.0
    vertex 3.7020815280171293 28.797918471982868 0.0
    vertex 3.972243186433544 29.150000000000002 0.0
  endloop
endfacet
facet normal 0.0 0.0 -1.0
  outer loop
    vertex 3.7940952255126006 25.17037086855466 0.0
    vertex 3.972243186433544 29.150000000000002 0.0
    vertex 4.9999999999999964 25.669872981077805 0.0
  endloop
endfacet
facet normal 0.0 0.0 -1.0
  outer loop
    vertex 4.9999999999999964 25.669872981077805 0.0
    vertex 3.972243186433544 29.150000000000002 0.0
    vertex 4.142073904691415 29.560007623325717 0.0
  endloop
endfacet
facet normal 0.0 0.0 -1.0
  outer loop
    vertex 4.9999999999999964 25.669872981077805 0.0
    vertex 4.142073904691415 29.560007623325717 0.0
    vertex 4.1999999999999975 30.0 0.0
  endloop
endfacet
endsolid box pakan ikan
